<?xml version="1.0" encoding="UTF-8"?>
<svg xmlns="http://www.w3.org/2000/svg" viewBox="0 0 1600 900" width="1600" height="900">
<!-- K8b overview. Source: design/prep/concepts/K8b-sealed-tub-magnetic-puck.md sections 2.1-2.5, 3.1, 3.3, 3.12, 5.1-5.3. Front view X/Z and top view X/Y at 0.5 px/mm, side section Y/Z at 0.33 px/mm. Simplifications: one short composite meal (onion diced in the press cup, fried, a plate sauced) in a 48 s loop; the dock tilt is drawn in the X-Z plane for visibility (the real pour edge runs along X); the dicer grid comes with the puck (its fetch is not shown); the press cup is washed upright-inverted in the well rather than on edge; ware that leaves the tub simply disappears; the oven stands outside the module and is not drawn. -->
<style>text{font-family:system-ui,sans-serif;fill:#2b2f33}.b{font-weight:700}.s{font-size:14px}.m{font-size:16px}.l{font-size:20px}.c{text-anchor:middle}.r{text-anchor:end}.h{stroke:#fff;stroke-width:4;paint-order:stroke}.w{fill:#fff}</style>
<rect width="1600" height="900" fill="#ffffff"/>
<text x="24" y="34" class="l b">K8b  Sealed tub with magnetic pucks — improved</text>
<text x="24" y="58" class="m">Nothing passes through a wall: magnets behind the front skin drag pucks inside; a turning floor hub; a well that washes during the meal.</text>
<text x="1576" y="28" class="s r b">tub 1130 × 500 × 700 inside · module 1180 × 600 · floor at 900</text>
<text x="1576" y="47" class="s r">10 motion actuators, all dry · 0 dynamic seals</text>
<text x="1576" y="66" class="s r">puck Ø190, planned at R50: ≤ 40 N in plane, 6 Nm rotor</text>
<text x="1576" y="85" class="s r">T 30 Nm 0–500 rpm · S 1.5 Nm 0–6000 rpm</text>
<text x="1576" y="104" class="s r">next meal 12 min after the last hand-over</text>
<text x="24" y="92" class="s b">FRONT VIEW (door dropped into the plinth: you look at the drive wall)</text>
<line x1="180" y1="120" x2="280" y2="120" stroke="#555" stroke-width="1.2"/><line x1="180" y1="115" x2="180" y2="125" stroke="#555" stroke-width="1.2"/><line x1="280" y1="115" x2="280" y2="125" stroke="#555" stroke-width="1.2"/><text x="230" y="115" class="s c">W wash</text>
<line x1="280" y1="120" x2="445" y2="120" stroke="#555" stroke-width="1.2"/><line x1="280" y1="115" x2="280" y2="125" stroke="#555" stroke-width="1.2"/><line x1="445" y1="115" x2="445" y2="125" stroke="#555" stroke-width="1.2"/><text x="362.5" y="115" class="s c">P prep</text>
<line x1="447" y1="120" x2="743" y2="120" stroke="#555" stroke-width="1.2"/><line x1="447" y1="115" x2="447" y2="125" stroke="#555" stroke-width="1.2"/><line x1="743" y1="115" x2="743" y2="125" stroke="#555" stroke-width="1.2"/><text x="595" y="115" class="s c">H hob</text>
<rect x="167.5" y="550" width="590" height="252" fill="#e9ecef" stroke="#3a3f45" stroke-width="1.5"/>
<path d="M167.5 802 l20 -6 l20 6 l20 -6" fill="none" stroke="#555" stroke-width="1.2"/>
<text x="690" y="790" class="s r">plinth: pumps, tank, boiler, drives</text>
<rect x="167.5" y="187.5" width="590" height="362.5" fill="#d0d4d9" stroke="#3a3f45" stroke-width="2.5"/>
<rect x="180" y="200" width="565" height="350" fill="#f6f7f8" stroke="#3a3f45" stroke-width="2"/>
<rect x="312.5" y="186" width="100" height="15" fill="#ffffff" stroke="none" stroke-width="0"/>
<rect x="305" y="128" width="130" height="58" fill="none" stroke="#555" stroke-width="1.2" stroke-dasharray="5 4"/>
<text x="441" y="150" class="s">dock + tilter</text>
<text x="441" y="168" class="s">(above the ceiling, dry)</text>
<g><animateTransform attributeName="transform" type="rotate" values="0 362 158;0 362 158;150 362 158;150 362 158;0 362 158;0 362 158" keyTimes="0;0.03;0.07;0.1;0.12;1" dur="48s" repeatCount="indefinite"/><g><animate attributeName="opacity" values="1;0" keyTimes="0;0.12" dur="48s" repeatCount="indefinite" calcMode="discrete"/><rect x="327" y="142" width="70" height="32" fill="#f5f0e1" stroke="#3a3f45" stroke-width="1.5"/></g><g><animate attributeName="opacity" values="1;0" keyTimes="0;0.05" dur="48s" repeatCount="indefinite" calcMode="discrete"/><ellipse cx="350" cy="163" rx="12" ry="8" fill="#e8c547" stroke="#3a3f45" stroke-width="1"/><ellipse cx="374" cy="163" rx="12" ry="8" fill="#e8c547" stroke="#3a3f45" stroke-width="1"/></g></g>
<rect x="312.5" y="189" width="100" height="9" fill="#f28c28" stroke="#3a3f45" stroke-width="1.5"><animateTransform attributeName="transform" type="translate" values="0 0;0 0;105 0;105 0;0 0;0 0" keyTimes="0;0.02;0.04;0.1;0.12;1" dur="48s" repeatCount="indefinite"/></rect>
<ellipse cx="350" cy="163" rx="12" ry="8" fill="#e8c547" stroke="#3a3f45" stroke-width="1" opacity="0"><animate attributeName="opacity" values="0;1;0" keyTimes="0;0.05;0.2" dur="48s" repeatCount="indefinite" calcMode="discrete"/><animateTransform attributeName="transform" type="translate" values="0 0;0 0;6 300;6 300;6 320;6 320" keyTimes="0;0.05;0.09;0.18;0.2;1" dur="48s" repeatCount="indefinite"/></ellipse>
<ellipse cx="374" cy="163" rx="12" ry="8" fill="#e8c547" stroke="#3a3f45" stroke-width="1" opacity="0"><animate attributeName="opacity" values="0;1;0" keyTimes="0;0.05;0.2" dur="48s" repeatCount="indefinite" calcMode="discrete"/><animateTransform attributeName="transform" type="translate" values="0 0;0 0;-6 310;-6 310;-6 320;-6 320" keyTimes="0;0.05;0.1;0.18;0.2;1" dur="48s" repeatCount="indefinite"/></ellipse>
<path d="M296.0 200 a9 9 0 0 0 18 0 Z" fill="#2b2f33"/>
<path d="M586.0 200 a9 9 0 0 0 18 0 Z" fill="#2b2f33"/>
<line x1="180" y1="205" x2="745" y2="205" stroke="#4aa3df" stroke-width="5"/>
<text x="740" y="224" class="s r h">drip bar</text>
<rect x="180" y="200" width="90" height="160" fill="#e4f1ea" stroke="#3a3f45" stroke-width="2"/>
<line x1="190" y1="250" x2="190" y2="290" stroke="#8fa8c0" stroke-width="5"/>
<line x1="190" y1="300" x2="190" y2="340" stroke="#8fa8c0" stroke-width="5"/>
<line x1="212" y1="250" x2="212" y2="290" stroke="#8fa8c0" stroke-width="5"/>
<line x1="212" y1="300" x2="212" y2="340" stroke="#8fa8c0" stroke-width="5"/>
<line x1="234" y1="250" x2="234" y2="290" stroke="#8fa8c0" stroke-width="5"/>
<line x1="234" y1="300" x2="234" y2="340" stroke="#8fa8c0" stroke-width="5"/>
<line x1="256" y1="250" x2="256" y2="290" stroke="#8fa8c0" stroke-width="5"/>
<line x1="256" y1="300" x2="256" y2="340" stroke="#8fa8c0" stroke-width="5"/>
<text x="225" y="222" class="s c b">NOOK</text>
<text x="225" y="240" class="s c">8 tools</text>
<circle cx="210" cy="385" r="4" fill="#2b2f33" stroke="#3a3f45" stroke-width="1"/>
<circle cx="250" cy="385" r="4" fill="#2b2f33" stroke="#3a3f45" stroke-width="1"/>
<path d="M250 364 C 262 420 250 470 240 548" fill="none" stroke="#3c9a6a" stroke-width="2" stroke-dasharray="7 6"><animate attributeName="stroke-dashoffset" from="13" to="0" dur="1.2s" repeatCount="indefinite"/></path>
<text x="160" y="330" class="s r" fill="#3c9a6a">clean warm air</text>
<text x="160" y="346" class="s r" fill="#3c9a6a">nook → well</text>
<rect x="167.5" y="425" width="12.5" height="125" fill="#ffffff" stroke="none" stroke-width="0"/>
<line x1="167.5" y1="425" x2="180" y2="425" stroke="#6b4c8a" stroke-width="3"/>
<rect x="20" y="550" width="147.5" height="10" fill="#d0d4d9" stroke="#3a3f45" stroke-width="1.5"/>
<text x="94" y="576" class="s c">sill shelf, load cells</text>
<text x="94" y="430" class="s c b">hatch</text>
<text x="94" y="448" class="s c">(left wall)</text>
<rect x="185" y="550" width="90" height="225" fill="#ffffff" stroke="#3a3f45" stroke-width="2"/>
<rect x="183" y="606" width="6" height="8" fill="#8fa8c0" stroke="#3a3f45" stroke-width="1"/>
<rect x="271" y="606" width="6" height="8" fill="#8fa8c0" stroke="#3a3f45" stroke-width="1"/>
<g opacity="0"><animate attributeName="opacity" values="0;1;0" keyTimes="0;0.46;0.5" dur="48s" repeatCount="indefinite" calcMode="discrete"/><path d="M189.0 610.0 l40 18 l0 -14 Z" fill="#4aa3df" opacity="0.7"/><path d="M271.0 610.0 l-40 18 l0 -14 Z" fill="#4aa3df" opacity="0.7"/></g>
<rect x="183" y="652.5" width="6" height="8" fill="#8fa8c0" stroke="#3a3f45" stroke-width="1"/>
<rect x="271" y="652.5" width="6" height="8" fill="#8fa8c0" stroke="#3a3f45" stroke-width="1"/>
<g opacity="0"><animate attributeName="opacity" values="0;1;0" keyTimes="0;0.46;0.5" dur="48s" repeatCount="indefinite" calcMode="discrete"/><path d="M189.0 656.5 l40 18 l0 -14 Z" fill="#4aa3df" opacity="0.7"/><path d="M271.0 656.5 l-40 18 l0 -14 Z" fill="#4aa3df" opacity="0.7"/></g>
<rect x="183" y="699" width="6" height="8" fill="#8fa8c0" stroke="#3a3f45" stroke-width="1"/>
<rect x="271" y="699" width="6" height="8" fill="#8fa8c0" stroke="#3a3f45" stroke-width="1"/>
<g opacity="0"><animate attributeName="opacity" values="0;1;0" keyTimes="0;0.46;0.5" dur="48s" repeatCount="indefinite" calcMode="discrete"/><path d="M189.0 703.0 l40 18 l0 -14 Z" fill="#4aa3df" opacity="0.7"/><path d="M271.0 703.0 l-40 18 l0 -14 Z" fill="#4aa3df" opacity="0.7"/></g>
<rect x="183" y="745.5" width="6" height="8" fill="#8fa8c0" stroke="#3a3f45" stroke-width="1"/>
<rect x="271" y="745.5" width="6" height="8" fill="#8fa8c0" stroke="#3a3f45" stroke-width="1"/>
<g opacity="0"><animate attributeName="opacity" values="0;1;0" keyTimes="0;0.46;0.5" dur="48s" repeatCount="indefinite" calcMode="discrete"/><path d="M189.0 749.5 l40 18 l0 -14 Z" fill="#4aa3df" opacity="0.7"/><path d="M271.0 749.5 l-40 18 l0 -14 Z" fill="#4aa3df" opacity="0.7"/></g>
<rect x="200" y="755" width="60" height="18" fill="none" stroke="#555" stroke-width="1.2" stroke-dasharray="3 3"/>
<text x="230" y="595" class="s c b">WELL</text>
<text x="230" y="612" class="s c">450 deep</text>
<g><line x1="275" y1="740" x2="335" y2="740" stroke="#9aa1a8" stroke-width="3"/><path d="M335 740 L326.71 743.5 L326.71 736.5 Z" fill="#9aa1a8"/></g>
<text x="339" y="735" class="s">downdraft</text>
<text x="339" y="751" class="s">100 m³/h</text>
<g opacity="0"><animate attributeName="opacity" values="0;1;0" keyTimes="0;0.38;0.52" dur="48s" repeatCount="indefinite" calcMode="discrete"/><g><line x1="205" y1="520" x2="205" y2="560" stroke="#2b2f33" stroke-width="2"/><path d="M205 560 L201.88 552.63 L208.12 552.63 Z" fill="#2b2f33"/></g></g>
<g opacity="0"><animate attributeName="opacity" values="0;1;0" keyTimes="0;0.38;0.52" dur="48s" repeatCount="indefinite" calcMode="discrete"/><g><line x1="230" y1="520" x2="230" y2="560" stroke="#2b2f33" stroke-width="2"/><path d="M230 560 L226.88 552.63 L233.12 552.63 Z" fill="#2b2f33"/></g></g>
<g opacity="0"><animate attributeName="opacity" values="0;1;0" keyTimes="0;0.38;0.52" dur="48s" repeatCount="indefinite" calcMode="discrete"/><g><line x1="255" y1="520" x2="255" y2="560" stroke="#2b2f33" stroke-width="2"/><path d="M255 560 L251.88 552.63 L258.12 552.63 Z" fill="#2b2f33"/></g></g>
<rect x="332.5" y="550" width="60" height="30" fill="#ffffff" stroke="#3a3f45" stroke-width="1.5"/>
<rect x="335" y="552" width="50" height="26" fill="#f28c28" stroke="#3a3f45" stroke-width="1.2"/>
<rect x="345" y="580" width="30" height="60" fill="#d0d4d9" stroke="#3a3f45" stroke-width="1.2"/>
<text x="362.5" y="660" class="s c b">T/S hub</text>
<text x="362.5" y="676" class="s c">in the floor</text>
<rect x="447" y="550" width="296" height="6" fill="#2b2f33" stroke="#3a3f45" stroke-width="1"/>
<rect x="460.0" y="557" width="115" height="8" fill="#d0d4d9" stroke="#3a3f45" stroke-width="1"><animate attributeName="fill" values="#d0d4d9;#d0d4d9;#e04a3a;#e04a3a;#d0d4d9;#d0d4d9" keyTimes="0;0.25;0.25;0.38;0.38;1" dur="48s" repeatCount="indefinite" calcMode="discrete"/></rect>
<rect x="615.0" y="557" width="115" height="8" fill="#d0d4d9" stroke="#3a3f45" stroke-width="1"/>
<rect x="447" y="566" width="296" height="50" fill="#e1e5e9" stroke="#3a3f45" stroke-width="1.2"/>
<text x="595" y="586" class="s c">bought 60 cm flex hob</text>
<text x="517.5" y="607" class="s c">zone L</text>
<text x="672.5" y="607" class="s c">zone R</text>
<rect x="460" y="425" width="270" height="50" fill="none" stroke="#9aa1a8" stroke-width="1.2" stroke-dasharray="6 4"/>
<text x="730" y="441" class="s r">exhaust slot</text>
<text x="730" y="457" class="s r">(rear wall)</text>
<g><animate attributeName="opacity" values="1;0" keyTimes="0;0.82" dur="48s" repeatCount="indefinite" calcMode="discrete"/><path d="M622.5 500.0 L622.5 550 L722.5 550 L722.5 500.0" fill="#c9d6e3" stroke="#3a3f45" stroke-width="1.5"/><path d="M606.0 517.5 L606.0 550 L738.5 550 L738.5 517.5" fill="#8fa8c0" stroke="#3a3f45" stroke-width="2"/></g>
<g><animate attributeName="opacity" values="1;0" keyTimes="0;0.82" dur="48s" repeatCount="indefinite" calcMode="discrete"/><path d="M451.25 517.5 L451.25 550 L583.75 550 L583.75 517.5" fill="#8fa8c0" stroke="#3a3f45" stroke-width="2"/><g opacity="0"><animate attributeName="opacity" values="0;1;0" keyTimes="0;0.22;0.82" dur="48s" repeatCount="indefinite" calcMode="discrete"/><g><animate attributeName="fill" values="#e8c547;#e8c547;#c98a3a;#c98a3a" keyTimes="0;0.27;0.35;1" dur="48s" repeatCount="indefinite"/><rect x="460.0" y="538" width="9" height="9" stroke="#3a3f45" stroke-width="0.8"/><rect x="472.0" y="533" width="9" height="9" stroke="#3a3f45" stroke-width="0.8"/><rect x="484.0" y="538" width="9" height="9" stroke="#3a3f45" stroke-width="0.8"/><rect x="496.0" y="533" width="9" height="9" stroke="#3a3f45" stroke-width="0.8"/><rect x="508.0" y="538" width="9" height="9" stroke="#3a3f45" stroke-width="0.8"/><rect x="520.0" y="533" width="9" height="9" stroke="#3a3f45" stroke-width="0.8"/><rect x="532.0" y="538" width="9" height="9" stroke="#3a3f45" stroke-width="0.8"/><rect x="544.0" y="533" width="9" height="9" stroke="#3a3f45" stroke-width="0.8"/><rect x="556.0" y="538" width="9" height="9" stroke="#3a3f45" stroke-width="0.8"/><rect x="568.0" y="533" width="9" height="9" stroke="#3a3f45" stroke-width="0.8"/></g></g></g>
<path d="M480.0 510 q-8 -12 0 -24 q8 -12 0 -24" fill="none" stroke="#9aa1a8" stroke-width="2" opacity="0"><animate attributeName="opacity" values="0;1;0" keyTimes="0;0.27;0.38" dur="48s" repeatCount="indefinite" calcMode="discrete"/></path>
<path d="M520.0 510 q-8 -12 0 -24 q8 -12 0 -24" fill="none" stroke="#9aa1a8" stroke-width="2" opacity="0"><animate attributeName="opacity" values="0;1;0" keyTimes="0;0.27;0.38" dur="48s" repeatCount="indefinite" calcMode="discrete"/></path>
<path d="M560.0 510 q-8 -12 0 -24 q8 -12 0 -24" fill="none" stroke="#9aa1a8" stroke-width="2" opacity="0"><animate attributeName="opacity" values="0;1;0" keyTimes="0;0.27;0.38" dur="48s" repeatCount="indefinite" calcMode="discrete"/></path>
<g><animate attributeName="opacity" values="1;0" keyTimes="0;0.38" dur="48s" repeatCount="indefinite" calcMode="discrete"/><line x1="389.5" y1="452" x2="460" y2="512" stroke="#8fa8c0" stroke-width="6"/><line x1="389.5" y1="452" x2="460" y2="512" stroke="#3a3f45" stroke-width="1"/><rect x="335" y="450" width="55" height="100" fill="#dfe7ef" stroke="#3a3f45" stroke-width="2"/><rect x="337.5" y="532" width="50" height="10" fill="#f28c28" stroke="#3a3f45" stroke-width="1"><animateTransform attributeName="transform" type="translate" values="0 0;0 0;0 -72;0 -72;0 0;0 0" keyTimes="0;0.18;0.25;0.36;0.38;1" dur="48s" repeatCount="indefinite"/></rect><line x1="362.5" y1="542" x2="362.5" y2="550" stroke="#3a3f45" stroke-width="4"/></g>
<text x="328.5" y="470" class="s r h">press</text>
<text x="328.5" y="486" class="s r h">cup</text>
<rect x="358.5" y="440" width="9" height="9" fill="#e8c547" stroke="#3a3f45" stroke-width="0.8" opacity="0"><animate attributeName="opacity" values="0;1;0" keyTimes="0;0.19;0.21" dur="48s" repeatCount="indefinite" calcMode="discrete"/><animateTransform attributeName="transform" type="translate" values="0 0;0 0;30 6;105 90;105 90" keyTimes="0;0.19;0.19;0.21;1" dur="48s" repeatCount="indefinite"/></rect>
<rect x="358.5" y="440" width="9" height="9" fill="#e8c547" stroke="#3a3f45" stroke-width="0.8" opacity="0"><animate attributeName="opacity" values="0;1;0" keyTimes="0;0.2;0.23" dur="48s" repeatCount="indefinite" calcMode="discrete"/><animateTransform attributeName="transform" type="translate" values="0 0;0 0;30 6;111 90;111 90" keyTimes="0;0.2;0.21;0.23;1" dur="48s" repeatCount="indefinite"/></rect>
<rect x="358.5" y="440" width="9" height="9" fill="#e8c547" stroke="#3a3f45" stroke-width="0.8" opacity="0"><animate attributeName="opacity" values="0;1;0" keyTimes="0;0.21;0.24" dur="48s" repeatCount="indefinite" calcMode="discrete"/><animateTransform attributeName="transform" type="translate" values="0 0;0 0;30 6;117 90;117 90" keyTimes="0;0.21;0.22;0.24;1" dur="48s" repeatCount="indefinite"/></rect>
<rect x="358.5" y="440" width="9" height="9" fill="#e8c547" stroke="#3a3f45" stroke-width="0.8" opacity="0"><animate attributeName="opacity" values="0;1;0" keyTimes="0;0.23;0.25" dur="48s" repeatCount="indefinite" calcMode="discrete"/><animateTransform attributeName="transform" type="translate" values="0 0;0 0;30 6;123 90;123 90" keyTimes="0;0.23;0.23;0.25;1" dur="48s" repeatCount="indefinite"/></rect>
<rect x="358.5" y="440" width="9" height="9" fill="#e8c547" stroke="#3a3f45" stroke-width="0.8" opacity="0"><animate attributeName="opacity" values="0;1;0" keyTimes="0;0.24;0.26" dur="48s" repeatCount="indefinite" calcMode="discrete"/><animateTransform attributeName="transform" type="translate" values="0 0;0 0;30 6;129 90;129 90" keyTimes="0;0.24;0.24;0.26;1" dur="48s" repeatCount="indefinite"/></rect>
<g><animateTransform attributeName="transform" type="translate" values="0 0;0 0;162.5 0;162.5 0;0 0;0 0" keyTimes="0;0.54;0.57;0.8;0.82;1" dur="48s" repeatCount="indefinite"/><rect x="17.5" y="542" width="150" height="8" fill="#8fa8c0" stroke="#3a3f45" stroke-width="1.5"/></g>
<g opacity="0"><animate attributeName="opacity" values="0;1;0" keyTimes="0;0.53;0.82" dur="48s" repeatCount="indefinite" calcMode="discrete"/><g><animateTransform attributeName="transform" type="translate" values="92.5 538;92.5 538;92.5 538;255 538;255 473;362.5 473;362.5 538;362.5 538;362.5 473;255 473;255 538;92.5 538;92.5 538" keyTimes="0;0.53;0.54;0.57;0.59;0.61;0.64;0.76;0.77;0.79;0.8;0.82;1" dur="48s" repeatCount="indefinite"/><path d="M-62 -4 L62 -4 L52 4 L-52 4 Z" fill="#ffffff" stroke="#3a3f45" stroke-width="1.5"/><rect x="-30" y="-8" width="60" height="4" fill="#a0522d" opacity="0"><animate attributeName="opacity" values="0;1;0" keyTimes="0;0.69;0.82" dur="48s" repeatCount="indefinite" calcMode="discrete"/></rect></g></g>
<g opacity="0"><animate attributeName="opacity" values="0;1;0" keyTimes="0;0.38;0.52" dur="48s" repeatCount="indefinite" calcMode="discrete"/><g><animateTransform attributeName="transform" type="translate" values="362.5 500;362.5 500;362.5 420;230 420;230 625;230 625;230 535;230 535" keyTimes="0;0.38;0.41;0.44;0.46;0.5;0.52;1" dur="48s" repeatCount="indefinite"/><line x1="0" y1="-103" x2="0" y2="-50" stroke="#8fa8c0" stroke-width="4"/><g><animateTransform attributeName="transform" type="rotate" values="0;0;180;180" keyTimes="0;0.41;0.44;1" dur="48s" repeatCount="indefinite"/><rect x="-27.5" y="-50" width="55" height="100" fill="#dfe7ef" stroke="#3a3f45" stroke-width="2"/></g></g></g>
<path d="M354.0 495.0 q-4 30 0 52" fill="none" stroke="#a0522d" stroke-width="5" opacity="0"><animate attributeName="opacity" values="0;1;0" keyTimes="0;0.68;0.74" dur="48s" repeatCount="indefinite" calcMode="discrete"/></path>
<g opacity="0"><animate attributeName="opacity" values="0;1;0" keyTimes="0;0.82;0.99" dur="48s" repeatCount="indefinite" calcMode="discrete"/><rect x="180" y="208" width="565" height="342" fill="#4aa3df" opacity="0.12"/><line x1="195" y1="208" x2="195" y2="548" stroke="#4aa3df" stroke-width="2" stroke-dasharray="10 14"><animate attributeName="stroke-dashoffset" from="-24" to="0" dur="0.8s" repeatCount="indefinite"/></line><line x1="225" y1="208" x2="225" y2="548" stroke="#4aa3df" stroke-width="2" stroke-dasharray="10 14"><animate attributeName="stroke-dashoffset" from="-24" to="0" dur="0.8s" repeatCount="indefinite"/></line><line x1="255" y1="208" x2="255" y2="548" stroke="#4aa3df" stroke-width="2" stroke-dasharray="10 14"><animate attributeName="stroke-dashoffset" from="-24" to="0" dur="0.8s" repeatCount="indefinite"/></line><line x1="285" y1="208" x2="285" y2="548" stroke="#4aa3df" stroke-width="2" stroke-dasharray="10 14"><animate attributeName="stroke-dashoffset" from="-24" to="0" dur="0.8s" repeatCount="indefinite"/></line><line x1="315" y1="208" x2="315" y2="548" stroke="#4aa3df" stroke-width="2" stroke-dasharray="10 14"><animate attributeName="stroke-dashoffset" from="-24" to="0" dur="0.8s" repeatCount="indefinite"/></line><line x1="345" y1="208" x2="345" y2="548" stroke="#4aa3df" stroke-width="2" stroke-dasharray="10 14"><animate attributeName="stroke-dashoffset" from="-24" to="0" dur="0.8s" repeatCount="indefinite"/></line><line x1="375" y1="208" x2="375" y2="548" stroke="#4aa3df" stroke-width="2" stroke-dasharray="10 14"><animate attributeName="stroke-dashoffset" from="-24" to="0" dur="0.8s" repeatCount="indefinite"/></line><line x1="405" y1="208" x2="405" y2="548" stroke="#4aa3df" stroke-width="2" stroke-dasharray="10 14"><animate attributeName="stroke-dashoffset" from="-24" to="0" dur="0.8s" repeatCount="indefinite"/></line><line x1="435" y1="208" x2="435" y2="548" stroke="#4aa3df" stroke-width="2" stroke-dasharray="10 14"><animate attributeName="stroke-dashoffset" from="-24" to="0" dur="0.8s" repeatCount="indefinite"/></line><line x1="465" y1="208" x2="465" y2="548" stroke="#4aa3df" stroke-width="2" stroke-dasharray="10 14"><animate attributeName="stroke-dashoffset" from="-24" to="0" dur="0.8s" repeatCount="indefinite"/></line><line x1="495" y1="208" x2="495" y2="548" stroke="#4aa3df" stroke-width="2" stroke-dasharray="10 14"><animate attributeName="stroke-dashoffset" from="-24" to="0" dur="0.8s" repeatCount="indefinite"/></line><line x1="525" y1="208" x2="525" y2="548" stroke="#4aa3df" stroke-width="2" stroke-dasharray="10 14"><animate attributeName="stroke-dashoffset" from="-24" to="0" dur="0.8s" repeatCount="indefinite"/></line><line x1="555" y1="208" x2="555" y2="548" stroke="#4aa3df" stroke-width="2" stroke-dasharray="10 14"><animate attributeName="stroke-dashoffset" from="-24" to="0" dur="0.8s" repeatCount="indefinite"/></line><line x1="585" y1="208" x2="585" y2="548" stroke="#4aa3df" stroke-width="2" stroke-dasharray="10 14"><animate attributeName="stroke-dashoffset" from="-24" to="0" dur="0.8s" repeatCount="indefinite"/></line><line x1="615" y1="208" x2="615" y2="548" stroke="#4aa3df" stroke-width="2" stroke-dasharray="10 14"><animate attributeName="stroke-dashoffset" from="-24" to="0" dur="0.8s" repeatCount="indefinite"/></line><line x1="645" y1="208" x2="645" y2="548" stroke="#4aa3df" stroke-width="2" stroke-dasharray="10 14"><animate attributeName="stroke-dashoffset" from="-24" to="0" dur="0.8s" repeatCount="indefinite"/></line><line x1="675" y1="208" x2="675" y2="548" stroke="#4aa3df" stroke-width="2" stroke-dasharray="10 14"><animate attributeName="stroke-dashoffset" from="-24" to="0" dur="0.8s" repeatCount="indefinite"/></line><line x1="705" y1="208" x2="705" y2="548" stroke="#4aa3df" stroke-width="2" stroke-dasharray="10 14"><animate attributeName="stroke-dashoffset" from="-24" to="0" dur="0.8s" repeatCount="indefinite"/></line><line x1="735" y1="208" x2="735" y2="548" stroke="#4aa3df" stroke-width="2" stroke-dasharray="10 14"><animate attributeName="stroke-dashoffset" from="-24" to="0" dur="0.8s" repeatCount="indefinite"/></line><path d="M330 208 l-30 90 l60 0 Z" fill="#4aa3df" opacity="0.25"/><path d="M520 208 l-30 90 l60 0 Z" fill="#4aa3df" opacity="0.25"/><path d="M690 208 l-30 90 l60 0 Z" fill="#4aa3df" opacity="0.25"/></g>
<g><animateTransform attributeName="transform" type="translate" values="230 385;230 385;362.5 340;362.5 397.5;362.5 397.5;362.5 340;362.5 340;362.5 350;362.5 270;230 270;230 475;230 475;230 385;230 460;255 450;255 385;362.5 385;362.5 450;305 325;305 325;362.5 450;362.5 385;255 385;255 450;230 385;330 250;330 490;530 250;530 490;230 385;230 385" keyTimes="0;0.12;0.16;0.18;0.26;0.28;0.35;0.38;0.41;0.44;0.46;0.5;0.52;0.54;0.57;0.59;0.61;0.64;0.66;0.75;0.76;0.77;0.79;0.8;0.82;0.84;0.9;0.91;0.96;0.98;1" dur="48s" repeatCount="indefinite"/><circle r="47.5" fill="#f28c28" fill-opacity="0.85" stroke="#3a3f45" stroke-width="2"/><circle r="30" fill="none" stroke="#3a3f45" stroke-width="1.5" stroke-dasharray="4 3"/><circle r="8" fill="#8fa8c0" stroke="#3a3f45" stroke-width="1.2"/><g opacity="0"><animate attributeName="opacity" values="0;1;0" keyTimes="0;0.12;0.28" dur="48s" repeatCount="indefinite" calcMode="discrete"/><rect x="-30" y="47" width="60" height="6" fill="#8fa8c0" stroke="#3a3f45" stroke-width="1"/><line x1="-18" y1="47" x2="-18" y2="53" stroke="#3a3f45" stroke-width="1"/><line x1="-6" y1="47" x2="-6" y2="53" stroke="#3a3f45" stroke-width="1"/><line x1="6" y1="47" x2="6" y2="53" stroke="#3a3f45" stroke-width="1"/><line x1="18" y1="47" x2="18" y2="53" stroke="#3a3f45" stroke-width="1"/></g><g opacity="0"><animate attributeName="opacity" values="0;1;0" keyTimes="0;0.82;0.98" dur="48s" repeatCount="indefinite" calcMode="discrete"/><rect x="-75" y="44" width="150" height="7" fill="#555" stroke="#3a3f45" stroke-width="1"/></g><text y="-16" class="s c b">P1</text></g>
<g><animateTransform attributeName="transform" type="translate" values="630 325;630 325;522 445;495 445;550 445;495 445;530 445;630 325;630 325;400 425;400 425;630 325;630 325" keyTimes="0;0.25;0.27;0.29;0.31;0.33;0.35;0.38;0.65;0.67;0.75;0.77;1" dur="48s" repeatCount="indefinite"/><circle r="47.5" fill="#f28c28" fill-opacity="0.85" stroke="#3a3f45" stroke-width="2"/><circle r="30" fill="none" stroke="#3a3f45" stroke-width="1.5" stroke-dasharray="4 3"/><circle r="8" fill="#8fa8c0" stroke="#3a3f45" stroke-width="1.2"/><g opacity="0"><animate attributeName="opacity" values="0;1;0" keyTimes="0;0.26;0.38" dur="48s" repeatCount="indefinite" calcMode="discrete"/><rect x="-6" y="40" width="12" height="55" fill="#8fa8c0" stroke="#3a3f45" stroke-width="1.5"/></g><g opacity="0"><animate attributeName="opacity" values="0;1;0" keyTimes="0;0.66;0.77" dur="48s" repeatCount="indefinite" calcMode="discrete"/><g><animateTransform attributeName="transform" type="rotate" values="0 -40 52;0 -40 52;-70 -40 52;-70 -40 52;0 -40 52;0 -40 52" keyTimes="0;0.68;0.69;0.75;0.75;1" dur="48s" repeatCount="indefinite"/><rect x="-58" y="36" width="30" height="32" fill="#8fa8c0" stroke="#3a3f45" stroke-width="1.5"/><line x1="-28" y1="48" x2="-8" y2="30" stroke="#8fa8c0" stroke-width="4"/></g></g><text y="-16" class="s c b">P2</text></g>
<rect x="161" y="425.0" width="7" height="125" fill="#9aa1a8" stroke="#3a3f45" stroke-width="1.5"><animateTransform attributeName="transform" type="translate" values="0 0;0 0;0 -128;0 -128;0 0;0 0" keyTimes="0;0.52;0.53;0.82;0.84;1" dur="48s" repeatCount="indefinite"/></rect>
<text x="560" y="245" class="s h">drive wall = this front skin;</text>
<text x="560" y="262" class="s h">pucks cling to it</text>
<line x1="180" y1="822" x2="745" y2="822" stroke="#555" stroke-width="1.2"/><line x1="180" y1="817" x2="180" y2="827" stroke="#555" stroke-width="1.2"/><line x1="745" y1="817" x2="745" y2="827" stroke="#555" stroke-width="1.2"/><text x="462.5" y="839" class="s c">1130 inside (module 1180 × 600)</text>
<line x1="757.5" y1="200" x2="765" y2="200" stroke="#555" stroke-width="1.2"/>
<text x="768" y="205" class="s">700</text>
<line x1="757.5" y1="425" x2="765" y2="425" stroke="#555" stroke-width="1.2"/>
<text x="768" y="430" class="s">250</text>
<line x1="757.5" y1="550" x2="765" y2="550" stroke="#555" stroke-width="1.2"/>
<text x="768" y="555" class="s">0</text>
<text x="768" y="222" class="s">Z</text>
<text x="800" y="92" class="s b">TOP VIEW (drive wall at the bottom)</text>
<line x1="960" y1="175" x2="1525" y2="175" stroke="#555" stroke-width="1.2"/><line x1="960" y1="170" x2="960" y2="180" stroke="#555" stroke-width="1.2"/><line x1="1525" y1="170" x2="1525" y2="180" stroke="#555" stroke-width="1.2"/><text x="1242.5" y="170" class="s c">1130</text>
<line x1="1545" y1="200" x2="1545" y2="450" stroke="#555" stroke-width="1.2"/><line x1="1540" y1="200" x2="1550" y2="200" stroke="#555" stroke-width="1.2"/><line x1="1540" y1="450" x2="1550" y2="450" stroke="#555" stroke-width="1.2"/><text x="1551" y="330" class="s">500</text>
<rect x="947.5" y="187.5" width="590" height="262.5" fill="#d0d4d9" stroke="#3a3f45" stroke-width="2.5"/>
<rect x="960" y="200" width="565" height="250" fill="#f6f7f8" stroke="#3a3f45" stroke-width="2"/>
<rect x="947.5" y="450" width="590" height="45" fill="#c4cad1" stroke="#3a3f45" stroke-width="2"/>
<text x="1242" y="488" class="s c">drive cassette = door, 90 (heads move behind the skin)</text>
<rect x="960" y="420" width="565" height="30" fill="none" stroke="#9aa1a8" stroke-width="1" stroke-dasharray="5 4"/>
<text x="1100" y="414" class="s c h" fill="#6b7178">fall lane 60</text>
<rect x="960" y="300" width="90" height="127.5" fill="none" stroke="#3c9a6a" stroke-width="1.5" stroke-dasharray="6 4"/>
<rect x="965" y="240" width="90" height="170" fill="#ffffff" stroke="#3a3f45" stroke-width="2"/>
<text x="1010" y="270" class="s c b">well</text>
<text x="1010" y="400" class="s c h" fill="#3c9a6a">nook above</text>
<rect x="947.5" y="235" width="12.5" height="180" fill="#ffffff" stroke="none" stroke-width="0"/>
<line x1="947.5" y1="235" x2="947.5" y2="415" stroke="#6b4c8a" stroke-width="4"/>
<text x="870" y="227" class="s c b">hatch</text>
<g><animateTransform attributeName="transform" type="translate" values="0 0;0 0;162.5 0;162.5 0;0 0;0 0" keyTimes="0;0.54;0.57;0.8;0.82;1" dur="48s" repeatCount="indefinite"/><rect x="797.5" y="235" width="150" height="180" fill="#8fa8c0" stroke="#3a3f45" stroke-width="1.5" fill-opacity="0.85"/></g>
<text x="872" y="435" class="s c">pass tray</text>
<circle cx="1142.5" cy="325" r="30" fill="#f28c28" stroke="#3a3f45" stroke-width="1.5"/>
<g><animate attributeName="opacity" values="1;0" keyTimes="0;0.38" dur="48s" repeatCount="indefinite" calcMode="discrete"/><g><animateTransform attributeName="transform" type="rotate" values="0 1142.5 325;0 1142.5 325;720 1142.5 325;720 1142.5 325" keyTimes="0;0.18;0.26;1" dur="48s" repeatCount="indefinite"/><circle cx="1142.5" cy="325" r="27.5" fill="#dfe7ef" stroke="#3a3f45" stroke-width="2"/><line x1="1142.5" y1="325" x2="1142.5" y2="300" stroke="#3a3f45" stroke-width="2"/></g></g>
<text x="1142.5" y="252" class="s c b h">T/S hub</text>
<g opacity="0"><animate attributeName="opacity" values="0;1;0" keyTimes="0;0.53;0.82" dur="48s" repeatCount="indefinite" calcMode="discrete"/><g><animateTransform attributeName="transform" type="translate" values="872.5 325;872.5 325;872.5 325;1035 325;1035 325;1142.5 325;1142.5 325;1142.5 325;1035 325;1035 325;872.5 325;872.5 325" keyTimes="0;0.53;0.54;0.57;0.59;0.61;0.76;0.77;0.79;0.8;0.82;1" dur="48s" repeatCount="indefinite"/><g transform="translate(-1142.5 -325)"><g><animateTransform attributeName="transform" type="rotate" values="0 1142.5 325;0 1142.5 325;-270 1142.5 325;-270 1142.5 325" keyTimes="0;0.68;0.74;1" dur="48s" repeatCount="indefinite"/><circle cx="1142.5" cy="325" r="65" fill="#ffffff" stroke="#3a3f45" stroke-width="1.5"/><circle cx="1142.5" cy="325" r="50" fill="none" stroke="#c4cad1" stroke-width="1"/><path d="M1142.5 280 A45 45 0 1 0 1187.5 325" fill="none" stroke="#a0522d" stroke-width="7" stroke-dasharray="212" stroke-dashoffset="212" stroke-linecap="round"><animate attributeName="stroke-dashoffset" values="212;212;0;0" keyTimes="0;0.68;0.74;1" dur="48s" repeatCount="indefinite"/></path></g></g></g></g>
<rect x="1227" y="200" width="296" height="250" fill="#2b2f33" stroke="#3a3f45" stroke-width="1.5"/>
<rect x="1240.0" y="235.0" width="115" height="195" rx="18" fill="none" stroke="#7a8590" stroke-width="2"><animate attributeName="stroke" values="#7a8590;#7a8590;#e04a3a;#e04a3a;#7a8590;#7a8590" keyTimes="0;0.25;0.25;0.38;0.38;1" dur="48s" repeatCount="indefinite" calcMode="discrete"/></rect>
<rect x="1395" y="235" width="115" height="195" fill="none" stroke="#7a8590" stroke-width="2" rx="18"/>
<g><animate attributeName="opacity" values="1;0" keyTimes="0;0.82" dur="48s" repeatCount="indefinite" calcMode="discrete"/><rect x="1231.25" y="242.5" width="132.5" height="162.5" fill="#8fa8c0" stroke="#3a3f45" stroke-width="2"/><g opacity="0"><animate attributeName="opacity" values="0;1;0" keyTimes="0;0.22;0.82" dur="48s" repeatCount="indefinite" calcMode="discrete"/><rect x="1240" y="260" width="98" height="120" fill="#e8c547" stroke="none" stroke-width="0" opacity="0.8"/></g></g>
<g><animate attributeName="opacity" values="1;0" keyTimes="0;0.82" dur="48s" repeatCount="indefinite" calcMode="discrete"/><circle cx="1452.5" cy="260" r="50" fill="#c9d6e3" stroke="#3a3f45" stroke-width="1.5"/><rect x="1386" y="329" width="132.5" height="81" fill="#8fa8c0" stroke="#3a3f45" stroke-width="2"/></g>
<text x="1297.5" y="230" class="s c w">zone L</text>
<text x="1452.5" y="324" class="s c w">zone R</text>
<g><animateTransform attributeName="transform" type="translate" values="1010 0;1010 0;1142.5 0;1142.5 0;1142.5 0;1142.5 0;1142.5 0;1142.5 0;1142.5 0;1010 0;1010 0;1010 0;1010 0;1010 0;1035 0;1035 0;1142.5 0;1142.5 0;1085 0;1085 0;1142.5 0;1142.5 0;1035 0;1035 0;1010 0;1110 0;1110 0;1310 0;1310 0;1010 0;1010 0" keyTimes="0;0.12;0.16;0.18;0.26;0.28;0.35;0.38;0.41;0.44;0.46;0.5;0.52;0.54;0.57;0.59;0.61;0.64;0.66;0.75;0.76;0.77;0.79;0.8;0.82;0.84;0.9;0.91;0.96;0.98;1" dur="48s" repeatCount="indefinite"/><rect x="-47.5" y="425" width="95" height="25" fill="#f28c28" stroke="#3a3f45" stroke-width="2"/><text y="443" class="s c b">P1</text></g>
<g><animateTransform attributeName="transform" type="translate" values="1410 0;1410 0;1302 0;1275 0;1330 0;1275 0;1310 0;1410 0;1410 0;1180 0;1180 0;1410 0;1410 0" keyTimes="0;0.25;0.27;0.29;0.31;0.33;0.35;0.38;0.65;0.67;0.75;0.77;1" dur="48s" repeatCount="indefinite"/><rect x="-47.5" y="425" width="95" height="25" fill="#f28c28" stroke="#3a3f45" stroke-width="2"/><text y="443" class="s c b">P2</text></g>
<text x="800" y="540" class="s b">SIDE SECTION</text>
<rect x="850" y="550.75" width="202.95" height="259.05" fill="#d0d4d9" stroke="#3a3f45" stroke-width="2"/>
<rect x="879.7" y="559" width="165" height="231" fill="#f6f7f8" stroke="#3a3f45" stroke-width="1.5"/>
<rect x="850" y="559" width="29.7" height="231" fill="#c4cad1" stroke="#3a3f45" stroke-width="2"/>
<line x1="879.7" y1="559" x2="879.7" y2="790" stroke="#5d6a78" stroke-width="3"/>
<rect x="883" y="790" width="56" height="26" fill="#ffffff" stroke="#3a3f45" stroke-width="1.2"/>
<rect x="985.3" y="790" width="70" height="4" fill="#2b2f33" stroke="#3a3f45" stroke-width="1"/>
<g><animateTransform attributeName="transform" type="translate" values="0 0;0 0;0 -29.7;0 8.25;0 8.25;0 -29.7;0 -29.7;0 -23.1;0 -75.9;0 -75.9;0 59.4;0 59.4;0 0;0 49.5;0 42.9;0 0;0 0;0 42.9;0 -39.6;0 -39.6;0 42.9;0 0;0 0;0 42.9;0 0;0 -89.1;0 69.3;0 -89.1;0 69.3;0 0;0 0" keyTimes="0;0.12;0.16;0.18;0.26;0.28;0.35;0.38;0.41;0.44;0.46;0.5;0.52;0.54;0.57;0.59;0.61;0.64;0.66;0.75;0.76;0.77;0.79;0.8;0.82;0.84;0.9;0.91;0.96;0.98;1" dur="48s" repeatCount="indefinite"/><rect x="866.5" y="656.1" width="10" height="50" fill="#f28c28" stroke="#3a3f45" stroke-width="1.5"/><rect x="881.35" y="650.1" width="14" height="62" fill="#f28c28" stroke="#3a3f45" stroke-width="1.5"/><line x1="887.95" y1="681.1" x2="965.5" y2="681.1" stroke="#8fa8c0" stroke-width="5"/></g>
<text x="844" y="605.2" class="s r">door with</text>
<text x="844" y="621.2" class="s r">magnet head</text>
<text x="925.9" y="575.5" class="s c h">puck + tool</text>
<text x="965.5" y="827.8" class="s c">well</text>
<text x="1011.7" y="827.8" class="s c">hob</text>
<rect x="1130" y="560" width="18" height="14" fill="#d0d4d9" stroke="#3a3f45" stroke-width="1"/>
<text x="1156" y="572" class="s">casing</text>
<rect x="1130" y="586" width="18" height="14" fill="#8fa8c0" stroke="#3a3f45" stroke-width="1"/>
<text x="1156" y="598" class="s">stainless ware, tools</text>
<rect x="1130" y="612" width="18" height="14" fill="#f28c28" stroke="#3a3f45" stroke-width="1"/>
<text x="1156" y="624" class="s">moving parts (pucks, T)</text>
<rect x="1130" y="638" width="18" height="14" fill="#4aa3df" stroke="#3a3f45" stroke-width="1"/>
<text x="1156" y="650" class="s">water, wash</text>
<rect x="1130" y="664" width="18" height="14" fill="#e04a3a" stroke="#3a3f45" stroke-width="1"/>
<text x="1156" y="676" class="s">heat</text>
<rect x="1130" y="690" width="18" height="14" fill="#6b4c8a" stroke="#3a3f45" stroke-width="1"/>
<text x="1156" y="702" class="s">seals, gaskets</text>
<rect x="1130" y="716" width="18" height="14" fill="#3c9a6a" stroke="#3a3f45" stroke-width="1"/>
<text x="1156" y="728" class="s">clean air</text>
<line x1="1360" y1="760" x2="1460" y2="760" stroke="#3a3f45" stroke-width="3"/>
<text x="1410" y="752" class="s c">200 mm (front, top)</text>
<rect x="0" y="852" width="1600" height="48" fill="#eef1f4"/>
<text x="24" y="876" class="m" opacity="0"><tspan class="b">1/7 </tspan>Transport puts a box in the dock above the ceiling; the shutter opens and the box tips: onion halves fall into the press cup on T.<animate attributeName="opacity" values="1;0" keyTimes="0;0.12" dur="48s" repeatCount="indefinite" calcMode="discrete"/></text>
<text x="24" y="876" class="m" opacity="0"><tspan class="b">2/7 </tspan>P1 sets the dicer grid on the cup; T turns the screw, the piston pushes the onion up through the grid: dice slide down the spout into the pan.<animate attributeName="opacity" values="0;1;0" keyTimes="0;0.12;0.26" dur="48s" repeatCount="indefinite" calcMode="discrete"/></text>
<text x="24" y="876" class="m" opacity="0"><tspan class="b">3/7 </tspan>Zone L heats; P2 stirs with the paddle. The pucks move only because magnets behind the front skin drag them.<animate attributeName="opacity" values="0;1;0" keyTimes="0;0.26;0.38" dur="48s" repeatCount="indefinite" calcMode="discrete"/></text>
<text x="24" y="876" class="m" opacity="0"><tspan class="b">4/7 </tspan>P1 lowers the used cup into the well: hot jets wash it while the downdraft pulls the spray down, away from the food.<animate attributeName="opacity" values="0;1;0" keyTimes="0;0.38;0.52" dur="48s" repeatCount="indefinite" calcMode="discrete"/></text>
<text x="24" y="876" class="m" opacity="0"><tspan class="b">5/7 </tspan>The hatch opens; P1 pulls in the pass tray and sets the warm plate on T.<animate attributeName="opacity" values="0;1;0" keyTimes="0;0.52;0.65" dur="48s" repeatCount="indefinite" calcMode="discrete"/></text>
<text x="24" y="876" class="m" opacity="0"><tspan class="b">6/7 </tspan>T turns the plate while P2 pours sauce in an arc; the plate leaves on the pass tray, the hatch closes.<animate attributeName="opacity" values="0;1;0" keyTimes="0;0.65;0.82" dur="48s" repeatCount="indefinite" calcMode="discrete"/></text>
<text x="24" y="876" class="m" opacity="0"><tspan class="b">7/7 </tspan>After the meal (10 min): the drip bar runs a film down the drive wall, P1 squeegees it, ceiling nozzles wash the rest.<animate attributeName="opacity" values="0;1" keyTimes="0;0.82" dur="48s" repeatCount="indefinite" calcMode="discrete"/></text>
<rect x="0" y="850" width="1600" height="3" fill="#f28c28" transform="scale(0 1)"><animateTransform attributeName="transform" type="scale" values="0 1;1 1" dur="48s" repeatCount="indefinite"/></rect>
</svg>
