<?xml version="1.0" encoding="UTF-8"?>
<svg xmlns="http://www.w3.org/2000/svg" viewBox="0 0 1600 900" width="1600" height="900">
<!-- Source: design/prep/ideas/E-cleaning-first.md section 3 (concept C). Simplifications: section at 1 px/mm, the 3 mm holster gaps are drawn about 3x wider; the grid plate is laid on the mouth before the flip (the document only says plates are held by the yoke clamping force); the sickle is drawn sweeping slowly (real 180 rpm); 6-7 min holster programme compressed to 6.4 s; the gantry is not drawn, only the tube path. -->
<style>text{font-family:system-ui,sans-serif;fill:#2b2f33}.b{font-weight:700}.s{font-size:14px}.m{font-size:16px}.l{font-size:20px}.xl{font-size:24px}.c{text-anchor:middle}.r{text-anchor:end}.h{stroke:#fff;stroke-width:4;paint-order:stroke}.cap{font-size:20px}</style>
<rect width="1600" height="900" fill="#ffffff"/>
<defs><marker id="ah" viewBox="0 0 10 10" refX="8" refY="5" markerWidth="7" markerHeight="7" orient="auto-start-reverse"><path d="M0 0 L10 5 L0 10 z" fill="#3a3f45"/></marker><marker id="ahw" viewBox="0 0 10 10" refX="8" refY="5" markerWidth="7" markerHeight="7" orient="auto-start-reverse"><path d="M0 0 L10 5 L0 10 z" fill="#4aa3df"/></marker><marker id="aho" viewBox="0 0 10 10" refX="8" refY="5" markerWidth="7" markerHeight="7" orient="auto-start-reverse"><path d="M0 0 L10 5 L0 10 z" fill="#f28c28"/></marker><marker id="ahr" viewBox="0 0 10 10" refX="8" refY="5" markerWidth="7" markerHeight="7" orient="auto-start-reverse"><path d="M0 0 L10 5 L0 10 z" fill="#e04a3a"/></marker><marker id="ahg" viewBox="0 0 10 10" refX="8" refY="5" markerWidth="7" markerHeight="7" orient="auto-start-reverse"><path d="M0 0 L10 5 L0 10 z" fill="#6aa84f"/></marker></defs>
<text x="24" y="36" class="xl b">E-C  Kolbenrohr — everything is a pipe</text><text x="24" y="62" class="m">An open dairy tube with a loose piston is the universal vessel: it cuts, doses, forms, kneads — and is cleaned as a pipe.</text><text x="1576" y="30" class="s r b">tube DN100 (bore 100) × 250 / 400 mm = 1.96 / 3.1 L</text><text x="1576" y="49" class="s r">about 11 actuators · ram 5 kN, 300 stroke</text><text x="1576" y="68" class="s r">torpedo CIP: 5.5 L · 0.3 kWh · 6–7 min per tube</text><text x="1576" y="87" class="s r">Zone F ≈ 0.5 m² per meal (smallest of the four)</text><text x="40" y="100" class="s b">SECTION, 1 px per mm (holster gaps drawn ×3 wider)</text><text x="152" y="790" class="m b c">S1 fill + weigh</text><text x="410" y="790" class="m b c">S2 cut / extrude</text><text x="765" y="790" class="m b c">S4 torpedo holster</text><rect x="80" y="640" width="144" height="12" rx="0" fill="#d0d4d9" stroke="#3a3f45" stroke-width="2"/><rect x="110" y="652" width="84" height="30" rx="0" fill="#e9ecef" stroke="#3a3f45" stroke-width="2"/><text x="152" y="672" class="s c">load cell</text><text x="232" y="600" class="m b" opacity="0">0.0 kg<animate attributeName="opacity" dur="30s" repeatCount="indefinite" calcMode="discrete" keyTimes="0;0.04" values="1;0"/></text><text x="232" y="600" class="m b" opacity="0">0.6 kg<animate attributeName="opacity" dur="30s" repeatCount="indefinite" calcMode="discrete" keyTimes="0;0.04;0.0567" values="0;1;0"/></text><text x="232" y="600" class="m b" opacity="0">1.2 kg<animate attributeName="opacity" dur="30s" repeatCount="indefinite" calcMode="discrete" keyTimes="0;0.0567;0.15" values="0;1;0"/></text><g><rect x="70" y="270" width="84" height="70" rx="4" fill="#f5f0e1" stroke="#3a3f45" stroke-width="2"/><ellipse cx="96" cy="318" rx="22" ry="16" fill="#c8a165" stroke="#3a3f45" stroke-width="1.5"/><ellipse cx="128" cy="318" rx="22" ry="16" fill="#c8a165" stroke="#3a3f45" stroke-width="1.5"/><animateTransform attributeName="transform" type="rotate" dur="30s" repeatCount="indefinite" calcMode="linear" keyTimes="0;0.01;0.0333;0.0733;0.1;1" values="0 154 340;0 154 340;55 154 340;55 154 340;0 154 340;0 154 340"/></g><text x="64" y="262" class="s">box tilts</text><rect x="318" y="130" width="184" height="36" rx="0" fill="#e9ecef" stroke="#3a3f45" stroke-width="2"/><text x="410" y="153" class="s c">ram 5 kN (dry, above)</text><rect x="330" y="166" width="14" height="420" rx="0" fill="#d0d4d9" stroke="#3a3f45" stroke-width="2"/><rect x="476" y="166" width="14" height="420" rx="0" fill="#d0d4d9" stroke="#3a3f45" stroke-width="2"/><rect x="402" y="166" width="16" height="0" fill="#f28c28" stroke="#3a3f45" stroke-width="2"><animate attributeName="height" dur="30s" repeatCount="indefinite" calcMode="linear" keyTimes="0;0.24;0.26;0.5;0.5267;0.5467;0.5533;0.5733;1" values="0;0;159;349;349;369;369;0;0"/></rect><path d="M350 652 L356 730 L464 730 L470 652" fill="#8fa8c0" stroke="#3a3f45" stroke-width="2" stroke-linejoin="round"/><line x1="342" y1="652" x2="478" y2="652" stroke="#3a3f45" stroke-width="4"/><rect x="358" y="728" width="104" height="0" fill="#f2e2a0"><animate attributeName="height" dur="30s" repeatCount="indefinite" calcMode="linear" keyTimes="0;0.28;0.5;0.9933;1" values="0;0;40;40;0"/><animate attributeName="y" dur="30s" repeatCount="indefinite" calcMode="linear" keyTimes="0;0.28;0.5;0.9933;1" values="728;728;688;688;728"/></rect><text x="480" y="720" class="s">pot</text><rect x="361" y="365" width="98" height="210" fill="#f2e2a0" stroke="#3a3f45" stroke-width="1" opacity="0"><animate attributeName="y" dur="30s" repeatCount="indefinite" calcMode="linear" keyTimes="0;0.26;0.5;1" values="365;365;555;555"/><animate attributeName="height" dur="30s" repeatCount="indefinite" calcMode="linear" keyTimes="0;0.26;0.5;1" values="210;210;20;20"/><animate attributeName="opacity" dur="30s" repeatCount="indefinite" calcMode="discrete" keyTimes="0;0.24;0.5067" values="0;1;0"/></rect><g opacity="0"><g><path d="M0 0 Q30 -10 64 4 Q30 2 0 8 Z" fill="#8fa8c0" stroke="#3a3f45" stroke-width="2" stroke-linejoin="round"/><animateTransform attributeName="transform" type="translate" dur="1s" repeatCount="indefinite" calcMode="linear" keyTimes="0;0.5;1" values="350 586;410 586;350 586"/></g><animate attributeName="opacity" dur="30s" repeatCount="indefinite" calcMode="discrete" keyTimes="0;0.26;0.5067" values="0;1;0"/></g><text x="500" y="600" class="s" opacity="0">sickle: one cut per turn<animate attributeName="opacity" dur="30s" repeatCount="indefinite" calcMode="discrete" keyTimes="0;0.26;0.5067" values="0;1;0"/></text><text x="500" y="618" class="s" opacity="0">3 mm slice at 9 mm/s ram<animate attributeName="opacity" dur="30s" repeatCount="indefinite" calcMode="discrete" keyTimes="0;0.26;0.5067" values="0;1;0"/></text><g opacity="0"><rect width="10" height="10" fill="#f2e2a0" stroke="#3a3f45" stroke-width="1"><animate attributeName="x" values="370;372" dur="0.8s" begin="0.0s" repeatCount="indefinite"/><animate attributeName="y" values="590;690" dur="0.8s" begin="0.0s" repeatCount="indefinite"/></rect><rect width="10" height="10" fill="#f2e2a0" stroke="#3a3f45" stroke-width="1"><animate attributeName="x" values="386;386" dur="0.8s" begin="0.13s" repeatCount="indefinite"/><animate attributeName="y" values="590;690" dur="0.8s" begin="0.13s" repeatCount="indefinite"/></rect><rect width="10" height="10" fill="#f2e2a0" stroke="#3a3f45" stroke-width="1"><animate attributeName="x" values="402;400" dur="0.8s" begin="0.26s" repeatCount="indefinite"/><animate attributeName="y" values="590;690" dur="0.8s" begin="0.26s" repeatCount="indefinite"/></rect><rect width="10" height="10" fill="#f2e2a0" stroke="#3a3f45" stroke-width="1"><animate attributeName="x" values="418;414" dur="0.8s" begin="0.39s" repeatCount="indefinite"/><animate attributeName="y" values="590;690" dur="0.8s" begin="0.39s" repeatCount="indefinite"/></rect><rect width="10" height="10" fill="#f2e2a0" stroke="#3a3f45" stroke-width="1"><animate attributeName="x" values="434;428" dur="0.8s" begin="0.52s" repeatCount="indefinite"/><animate attributeName="y" values="590;690" dur="0.8s" begin="0.52s" repeatCount="indefinite"/></rect><rect width="10" height="10" fill="#f2e2a0" stroke="#3a3f45" stroke-width="1"><animate attributeName="x" values="450;442" dur="0.8s" begin="0.65s" repeatCount="indefinite"/><animate attributeName="y" values="590;690" dur="0.8s" begin="0.65s" repeatCount="indefinite"/></rect><animate attributeName="opacity" dur="30s" repeatCount="indefinite" calcMode="discrete" keyTimes="0;0.2733;0.5" values="0;1;0"/></g><rect x="520" y="690" width="120" height="12" rx="0" fill="#8fa8c0" stroke="#3a3f45" stroke-width="2"/><line x1="530" y1="690" x2="530" y2="672" stroke="#3a3f45" stroke-width="2"/><line x1="544" y1="690" x2="544" y2="672" stroke="#3a3f45" stroke-width="2"/><line x1="558" y1="690" x2="558" y2="672" stroke="#3a3f45" stroke-width="2"/><line x1="572" y1="690" x2="572" y2="672" stroke="#3a3f45" stroke-width="2"/><line x1="586" y1="690" x2="586" y2="672" stroke="#3a3f45" stroke-width="2"/><line x1="600" y1="690" x2="600" y2="672" stroke="#3a3f45" stroke-width="2"/><line x1="614" y1="690" x2="614" y2="672" stroke="#3a3f45" stroke-width="2"/><line x1="628" y1="690" x2="628" y2="672" stroke="#3a3f45" stroke-width="2"/><text x="580" y="720" class="s c">pistons + plates</text><text x="580" y="736" class="s c">→ comb rack</text><g opacity="0"><rect x="-50" y="-4" width="100" height="8" rx="0" fill="#8fa8c0" stroke="#3a3f45" stroke-width="2"/><line x1="-40" y1="-4" x2="-40" y2="4" stroke="#ffffff" stroke-width="1.5"/><line x1="-30" y1="-4" x2="-30" y2="4" stroke="#ffffff" stroke-width="1.5"/><line x1="-20" y1="-4" x2="-20" y2="4" stroke="#ffffff" stroke-width="1.5"/><line x1="-10" y1="-4" x2="-10" y2="4" stroke="#ffffff" stroke-width="1.5"/><line x1="0" y1="-4" x2="0" y2="4" stroke="#ffffff" stroke-width="1.5"/><line x1="10" y1="-4" x2="10" y2="4" stroke="#ffffff" stroke-width="1.5"/><line x1="20" y1="-4" x2="20" y2="4" stroke="#ffffff" stroke-width="1.5"/><line x1="30" y1="-4" x2="30" y2="4" stroke="#ffffff" stroke-width="1.5"/><line x1="40" y1="-4" x2="40" y2="4" stroke="#ffffff" stroke-width="1.5"/><animateTransform attributeName="transform" type="translate" dur="30s" repeatCount="indefinite" calcMode="linear" keyTimes="0;0.5067;0.5267;0.54;0.5467;1" values="410 579;410 579;560 640;560 640;552 640;552 640"/><animateTransform attributeName="transform" type="rotate" dur="30s" repeatCount="indefinite" calcMode="linear" keyTimes="0;0.52;0.54;1" values="0 0 0;0 0 0;90 0 0;90 0 0" additive="sum"/><animate attributeName="opacity" dur="30s" repeatCount="indefinite" calcMode="discrete" keyTimes="0;0.5067;0.9867" values="0;1;0"/></g><g opacity="0"><rect x="596" y="630" width="40" height="60" rx="3" fill="#4a7fc1" stroke="#3a3f45" stroke-width="2"/><animate attributeName="opacity" dur="30s" repeatCount="indefinite" calcMode="discrete" keyTimes="0;0.5533;0.9867" values="0;1;0"/></g><rect x="690" y="640" width="150" height="30" rx="3" fill="#d0d4d9" stroke="#3a3f45" stroke-width="2"/><text x="765" y="660" class="s c">sump 2 L + pump</text><rect x="697" y="392" width="6" height="248" rx="0" fill="#d0d4d9" stroke="#3a3f45" stroke-width="2"/><rect x="827" y="392" width="6" height="248" rx="0" fill="#d0d4d9" stroke="#3a3f45" stroke-width="2"/><rect x="723" y="400" width="84" height="240" rx="0" fill="#c4cad1" stroke="#3a3f45" stroke-width="2"/><text x="842" y="420" class="s">jacket</text><text x="842" y="500" class="s">fixed core</text><text x="842" y="516" class="s">Ø94</text><line x1="806" y1="496" x2="838" y2="496" stroke="#3a3f45" stroke-width="1"/><g opacity="0"><line x1="707" y1="636" x2="707" y2="396" stroke="#9fd0f0" stroke-width="3.5" stroke-dasharray="10 8" stroke-linecap="round"><animate attributeName="stroke-dashoffset" from="18" to="0" dur="0.3s" repeatCount="indefinite"/></line><line x1="719" y1="636" x2="719" y2="396" stroke="#9fd0f0" stroke-width="3.5" stroke-dasharray="10 8" stroke-linecap="round"><animate attributeName="stroke-dashoffset" from="18" to="0" dur="0.3s" repeatCount="indefinite"/></line><line x1="811" y1="636" x2="811" y2="396" stroke="#9fd0f0" stroke-width="3.5" stroke-dasharray="10 8" stroke-linecap="round"><animate attributeName="stroke-dashoffset" from="18" to="0" dur="0.3s" repeatCount="indefinite"/></line><line x1="823" y1="636" x2="823" y2="396" stroke="#9fd0f0" stroke-width="3.5" stroke-dasharray="10 8" stroke-linecap="round"><animate attributeName="stroke-dashoffset" from="18" to="0" dur="0.3s" repeatCount="indefinite"/></line><text x="765" y="372" class="s c b h">1 L cold, to drain</text><animate attributeName="opacity" dur="30s" repeatCount="indefinite" calcMode="discrete" keyTimes="0;0.62;0.6533" values="0;1;0"/></g><g opacity="0"><line x1="707" y1="636" x2="707" y2="396" stroke="#5fb3a0" stroke-width="3.5" stroke-dasharray="10 8" stroke-linecap="round"><animate attributeName="stroke-dashoffset" from="18" to="0" dur="0.3s" repeatCount="indefinite"/></line><line x1="719" y1="636" x2="719" y2="396" stroke="#5fb3a0" stroke-width="3.5" stroke-dasharray="10 8" stroke-linecap="round"><animate attributeName="stroke-dashoffset" from="18" to="0" dur="0.3s" repeatCount="indefinite"/></line><line x1="811" y1="636" x2="811" y2="396" stroke="#5fb3a0" stroke-width="3.5" stroke-dasharray="10 8" stroke-linecap="round"><animate attributeName="stroke-dashoffset" from="18" to="0" dur="0.3s" repeatCount="indefinite"/></line><line x1="823" y1="636" x2="823" y2="396" stroke="#5fb3a0" stroke-width="3.5" stroke-dasharray="10 8" stroke-linecap="round"><animate attributeName="stroke-dashoffset" from="18" to="0" dur="0.3s" repeatCount="indefinite"/></line><text x="765" y="372" class="s c b h">2 L enzyme 50 °C, 3 min</text><animate attributeName="opacity" dur="30s" repeatCount="indefinite" calcMode="discrete" keyTimes="0;0.6533;0.7333" values="0;1;0"/></g><g opacity="0"><line x1="707" y1="636" x2="707" y2="396" stroke="#4aa3df" stroke-width="3.5" stroke-dasharray="10 8" stroke-linecap="round"><animate attributeName="stroke-dashoffset" from="18" to="0" dur="0.3s" repeatCount="indefinite"/></line><line x1="719" y1="636" x2="719" y2="396" stroke="#4aa3df" stroke-width="3.5" stroke-dasharray="10 8" stroke-linecap="round"><animate attributeName="stroke-dashoffset" from="18" to="0" dur="0.3s" repeatCount="indefinite"/></line><line x1="811" y1="636" x2="811" y2="396" stroke="#4aa3df" stroke-width="3.5" stroke-dasharray="10 8" stroke-linecap="round"><animate attributeName="stroke-dashoffset" from="18" to="0" dur="0.3s" repeatCount="indefinite"/></line><line x1="823" y1="636" x2="823" y2="396" stroke="#4aa3df" stroke-width="3.5" stroke-dasharray="10 8" stroke-linecap="round"><animate attributeName="stroke-dashoffset" from="18" to="0" dur="0.3s" repeatCount="indefinite"/></line><text x="765" y="372" class="s c b h">1 L rinse</text><animate attributeName="opacity" dur="30s" repeatCount="indefinite" calcMode="discrete" keyTimes="0;0.7333;0.76" values="0;1;0"/></g><g opacity="0"><line x1="707" y1="636" x2="707" y2="396" stroke="#e04a3a" stroke-width="3.5" stroke-dasharray="10 8" stroke-linecap="round"><animate attributeName="stroke-dashoffset" from="18" to="0" dur="0.3s" repeatCount="indefinite"/></line><line x1="719" y1="636" x2="719" y2="396" stroke="#e04a3a" stroke-width="3.5" stroke-dasharray="10 8" stroke-linecap="round"><animate attributeName="stroke-dashoffset" from="18" to="0" dur="0.3s" repeatCount="indefinite"/></line><line x1="811" y1="636" x2="811" y2="396" stroke="#e04a3a" stroke-width="3.5" stroke-dasharray="10 8" stroke-linecap="round"><animate attributeName="stroke-dashoffset" from="18" to="0" dur="0.3s" repeatCount="indefinite"/></line><line x1="823" y1="636" x2="823" y2="396" stroke="#e04a3a" stroke-width="3.5" stroke-dasharray="10 8" stroke-linecap="round"><animate attributeName="stroke-dashoffset" from="18" to="0" dur="0.3s" repeatCount="indefinite"/></line><text x="765" y="372" class="s c b h">1.5 L at 85 °C, 60 s</text><animate attributeName="opacity" dur="30s" repeatCount="indefinite" calcMode="discrete" keyTimes="0;0.76;0.8" values="0;1;0"/></g><g opacity="0"><line x1="707" y1="636" x2="707" y2="396" stroke="#9aa1a8" stroke-width="3.5" stroke-dasharray="10 8" stroke-linecap="round"><animate attributeName="stroke-dashoffset" from="18" to="0" dur="0.3s" repeatCount="indefinite"/></line><line x1="719" y1="636" x2="719" y2="396" stroke="#9aa1a8" stroke-width="3.5" stroke-dasharray="10 8" stroke-linecap="round"><animate attributeName="stroke-dashoffset" from="18" to="0" dur="0.3s" repeatCount="indefinite"/></line><line x1="811" y1="636" x2="811" y2="396" stroke="#9aa1a8" stroke-width="3.5" stroke-dasharray="10 8" stroke-linecap="round"><animate attributeName="stroke-dashoffset" from="18" to="0" dur="0.3s" repeatCount="indefinite"/></line><line x1="823" y1="636" x2="823" y2="396" stroke="#9aa1a8" stroke-width="3.5" stroke-dasharray="10 8" stroke-linecap="round"><animate attributeName="stroke-dashoffset" from="18" to="0" dur="0.3s" repeatCount="indefinite"/></line><text x="765" y="372" class="s c b h">hot air through the gap</text><animate attributeName="opacity" dur="30s" repeatCount="indefinite" calcMode="discrete" keyTimes="0;0.8;0.8333" values="0;1;0"/></g><text x="765" y="354" class="s c" opacity="0">flow must pass every mm²: no spray shadow<animate attributeName="opacity" dur="30s" repeatCount="indefinite" calcMode="discrete" keyTimes="0;0.62;0.8333" values="0;1;0"/></text><g opacity="0"><rect x="745" y="300" width="40" height="30" rx="0" fill="#e9ecef" stroke="#3a3f45" stroke-width="2"/><path d="M752 330 L725 392 M778 330 L805 392" fill="none" stroke="#3a3f45" stroke-width="1.5" stroke-linejoin="round" stroke-dasharray="4 4"/><text x="738" y="312" class="s r">camera +</text><text x="738" y="328" class="s r">ring light</text><animate attributeName="opacity" dur="30s" repeatCount="indefinite" calcMode="discrete" keyTimes="0;0.8333;0.9867" values="0;1;0"/></g><g opacity="0"><g transform="translate(850 196)"><circle cx="0" cy="0" r="54" fill="#8fa8c0" stroke="#3a3f45" stroke-width="2"/><circle cx="0" cy="0" r="40" fill="#a9bccd" stroke="#3a3f45" stroke-width="0"/><circle cx="0" cy="0" r="26" fill="#c4d2de" stroke="#3a3f45" stroke-width="0"/><circle cx="0" cy="0" r="12" fill="#2b2f33" stroke="#3a3f45" stroke-width="0"/></g><text x="850" y="268" class="s c">bore view =</text><text x="850" y="284" class="s c">100 % of surface</text><animate attributeName="opacity" dur="30s" repeatCount="indefinite" calcMode="discrete" keyTimes="0;0.8467;0.9867" values="0;1;0"/></g><text x="765" y="690" class="s c" opacity="0">last rinse 1.5 L: turbidity +<animate attributeName="opacity" dur="30s" repeatCount="indefinite" calcMode="discrete" keyTimes="0;0.8;0.9867" values="0;1;0"/></text><text x="765" y="706" class="s c" opacity="0">conductivity (10 mg ≈ 7 mg/L)<animate attributeName="opacity" dur="30s" repeatCount="indefinite" calcMode="discrete" keyTimes="0;0.8;0.9867" values="0;1;0"/></text><text x="838" y="600" class="s b" opacity="0">tube<animate attributeName="opacity" dur="30s" repeatCount="indefinite" calcMode="discrete" keyTimes="0;0.62;0.8333" values="0;1;0"/></text><g opacity="0"><line x1="836" y1="596" x2="822" y2="590" stroke="#3a3f45" stroke-width="2" marker-end="url(#ah)"/><animate attributeName="opacity" dur="30s" repeatCount="indefinite" calcMode="discrete" keyTimes="0;0.62;0.8333" values="0;1;0"/></g><g><g><g><g><g><rect x="-50" y="-20" width="100" height="40" rx="3" fill="#4a7fc1" stroke="#3a3f45" stroke-width="2"/><line x1="-50" y1="-12" x2="50" y2="-12" stroke="#2f5f9a" stroke-width="2"/><line x1="-50" y1="12" x2="50" y2="12" stroke="#2f5f9a" stroke-width="2"/><animateTransform attributeName="transform" type="translate" dur="30s" repeatCount="indefinite" calcMode="linear" keyTimes="0;0.26;0.5;0.5267;0.5467;1" values="0 105;0 105;0 -85;0 -85;0 -105;0 -105"/></g><animate attributeName="opacity" dur="30s" repeatCount="indefinite" calcMode="discrete" keyTimes="0;0.5533" values="1;0"/></g><g opacity="0"><ellipse cx="0" cy="60" rx="36" ry="22" fill="#c8a165" stroke="#3a3f45" stroke-width="1.5"/><ellipse cx="0" cy="18" rx="36" ry="22" fill="#c8a165" stroke="#3a3f45" stroke-width="1.5"/><ellipse cx="0" cy="-24" rx="36" ry="22" fill="#c8a165" stroke="#3a3f45" stroke-width="1.5"/><animate attributeName="opacity" dur="30s" repeatCount="indefinite" calcMode="discrete" keyTimes="0;0.0667;0.24" values="0;1;0"/></g><g opacity="0"><rect x="-54" y="-133" width="108" height="8" rx="0" fill="#8fa8c0" stroke="#3a3f45" stroke-width="2"/><line x1="-44" y1="-133" x2="-44" y2="-125" stroke="#ffffff" stroke-width="1.5"/><line x1="-33" y1="-133" x2="-33" y2="-125" stroke="#ffffff" stroke-width="1.5"/><line x1="-22" y1="-133" x2="-22" y2="-125" stroke="#ffffff" stroke-width="1.5"/><line x1="-11" y1="-133" x2="-11" y2="-125" stroke="#ffffff" stroke-width="1.5"/><line x1="0" y1="-133" x2="0" y2="-125" stroke="#ffffff" stroke-width="1.5"/><line x1="11" y1="-133" x2="11" y2="-125" stroke="#ffffff" stroke-width="1.5"/><line x1="22" y1="-133" x2="22" y2="-125" stroke="#ffffff" stroke-width="1.5"/><line x1="33" y1="-133" x2="33" y2="-125" stroke="#ffffff" stroke-width="1.5"/><line x1="44" y1="-133" x2="44" y2="-125" stroke="#ffffff" stroke-width="1.5"/><animate attributeName="opacity" dur="30s" repeatCount="indefinite" calcMode="discrete" keyTimes="0;0.1333;0.5067" values="0;1;0"/></g><rect x="-54" y="-125" width="4" height="250" rx="0" fill="#8fa8c0" stroke="#3a3f45" stroke-width="1.5"/><rect x="50" y="-125" width="4" height="250" rx="0" fill="#8fa8c0" stroke="#3a3f45" stroke-width="1.5"/><animateTransform attributeName="transform" type="rotate" dur="30s" repeatCount="indefinite" calcMode="linear" keyTimes="0;0.1733;0.2133;1" values="0 0 0;0 0 0;180 0 0;180 0 0"/></g><animateTransform attributeName="transform" type="translate" dur="30s" repeatCount="indefinite" calcMode="linear" keyTimes="0;0.1467;0.1733;0.2133;0.24;0.5533;0.5733;0.6;0.62;1" values="152 515;152 515;152 330;410 330;410 450;410 450;410 300;765 300;765 515;765 515"/></g><animate attributeName="opacity" dur="30s" repeatCount="indefinite" calcMode="discrete" keyTimes="0;0.9867" values="1;0"/></g><g opacity="0"><ellipse cx="0" cy="0" rx="36" ry="22" fill="#c8a165" stroke="#3a3f45" stroke-width="1.5"/><animateTransform attributeName="transform" type="translate" dur="30s" repeatCount="indefinite" calcMode="linear" keyTimes="0;0.0267;0.0467;1" values="140 350;140 350;152 575;152 575"/><animate attributeName="opacity" dur="30s" repeatCount="indefinite" calcMode="discrete" keyTimes="0;0.0267;0.0667" values="0;1;0"/></g><g opacity="0"><ellipse cx="0" cy="0" rx="36" ry="22" fill="#c8a165" stroke="#3a3f45" stroke-width="1.5"/><animateTransform attributeName="transform" type="translate" dur="30s" repeatCount="indefinite" calcMode="linear" keyTimes="0;0.0367;0.0567;1" values="140 350;140 350;152 533;152 533"/><animate attributeName="opacity" dur="30s" repeatCount="indefinite" calcMode="discrete" keyTimes="0;0.0367;0.0667" values="0;1;0"/></g><g opacity="0"><ellipse cx="0" cy="0" rx="36" ry="22" fill="#c8a165" stroke="#3a3f45" stroke-width="1.5"/><animateTransform attributeName="transform" type="translate" dur="30s" repeatCount="indefinite" calcMode="linear" keyTimes="0;0.0467;0.0667;1" values="140 350;140 350;152 491;152 491"/><animate attributeName="opacity" dur="30s" repeatCount="indefinite" calcMode="discrete" keyTimes="0;0.0467;0.0667" values="0;1;0"/></g><text x="240" y="380" class="s" opacity="0">piston = floor<animate attributeName="opacity" dur="30s" repeatCount="indefinite" calcMode="discrete" keyTimes="0;0.1467" values="1;0"/></text><text x="240" y="300" class="s" opacity="0">grid end plate on the mouth<animate attributeName="opacity" dur="30s" repeatCount="indefinite" calcMode="discrete" keyTimes="0;0.1333;0.1733" values="0;1;0"/></text><text x="520" y="360" class="s" opacity="0">piston pushes food<animate attributeName="opacity" dur="30s" repeatCount="indefinite" calcMode="discrete" keyTimes="0;0.26;0.5" values="0;1;0"/></text><text x="520" y="378" class="s" opacity="0">through the dicing grid<animate attributeName="opacity" dur="30s" repeatCount="indefinite" calcMode="discrete" keyTimes="0;0.26;0.5" values="0;1;0"/></text><text x="500" y="450" class="s" opacity="0">pig: the piston scrapes<animate attributeName="opacity" dur="30s" repeatCount="indefinite" calcMode="discrete" keyTimes="0;0.5;0.5667" values="0;1;0"/></text><text x="500" y="468" class="s" opacity="0">the bore empty (film ≈ 4 g)<animate attributeName="opacity" dur="30s" repeatCount="indefinite" calcMode="discrete" keyTimes="0;0.5;0.5667" values="0;1;0"/></text><rect x="920" y="90" width="656" height="250" rx="10" fill="#f7f8f9" stroke="#3a3f45" stroke-width="1.5" stroke-opacity="0.5"/><text x="936" y="118" class="l b">Knead / mix: two tubes nose to nose, closed, no dust</text><g transform="translate(920 90)"><clipPath id="cb1"><rect x="0" y="36" width="656" height="200"/></clipPath><g clip-path="url(#cb1)"><g transform="translate(10 -14)"><rect x="40" y="90" width="210" height="4" rx="0" fill="#8fa8c0" stroke="#3a3f45" stroke-width="1.5"/><rect x="40" y="173" width="210" height="4" rx="0" fill="#8fa8c0" stroke="#3a3f45" stroke-width="1.5"/><rect x="262" y="90" width="210" height="4" rx="0" fill="#8fa8c0" stroke="#3a3f45" stroke-width="1.5"/><rect x="262" y="173" width="210" height="4" rx="0" fill="#8fa8c0" stroke="#3a3f45" stroke-width="1.5"/><rect x="250" y="86" width="12" height="95" rx="0" fill="#8fa8c0" stroke="#3a3f45" stroke-width="2"/><circle cx="256" cy="104" r="3" fill="#ffffff" stroke="#3a3f45" stroke-width="1"/><circle cx="256" cy="116" r="3" fill="#ffffff" stroke="#3a3f45" stroke-width="1"/><circle cx="256" cy="128" r="3" fill="#ffffff" stroke="#3a3f45" stroke-width="1"/><circle cx="256" cy="140" r="3" fill="#ffffff" stroke="#3a3f45" stroke-width="1"/><circle cx="256" cy="152" r="3" fill="#ffffff" stroke="#3a3f45" stroke-width="1"/><circle cx="256" cy="164" r="3" fill="#ffffff" stroke="#3a3f45" stroke-width="1"/><rect y="94" height="79" fill="#f0dcb0"><animate attributeName="x" dur="4s" repeatCount="indefinite" calcMode="linear" keyTimes="0;0.5;1" values="158;250;158"/><animate attributeName="width" dur="4s" repeatCount="indefinite" calcMode="linear" keyTimes="0;0.5;1" values="92;0;92"/></rect><rect x="262" y="94" height="79" fill="#f0dcb0"><animate attributeName="width" dur="4s" repeatCount="indefinite" calcMode="linear" keyTimes="0;0.5;1" values="0;92;0"/></rect><g><rect x="-26" y="94" width="26" height="79" rx="3" fill="#4a7fc1" stroke="#3a3f45" stroke-width="2"/><rect x="-110" y="126" width="84" height="14" rx="0" fill="#f28c28" stroke="#3a3f45" stroke-width="1.5"/><animateTransform attributeName="transform" type="translate" dur="4s" repeatCount="indefinite" calcMode="linear" keyTimes="0;0.5;1" values="158 0;250 0;158 0"/></g><g><rect x="0" y="94" width="26" height="79" rx="3" fill="#4a7fc1" stroke="#3a3f45" stroke-width="2"/><rect x="26" y="126" width="84" height="14" rx="0" fill="#f28c28" stroke="#3a3f45" stroke-width="1.5"/><animateTransform attributeName="transform" type="translate" dur="4s" repeatCount="indefinite" calcMode="linear" keyTimes="0;0.5;1" values="262 0;354 0;262 0"/></g><text x="256" y="210" class="s c">orifice plate 7 × Ø16</text><text x="140" y="72" class="s c">tube 1</text><text x="372" y="72" class="s c">tube 2</text><text x="486" y="92" class="s">rams push the dough</text><text x="486" y="110" class="s">back and forth</text><text x="486" y="140" class="s">4 bar (3.1 kN):</text><text x="486" y="158" class="s">360 J per pass</text><text x="486" y="188" class="s">~33 passes of 4 s</text><text x="486" y="206" class="s">= 2–3 min per kg</text></g></g></g><rect x="920" y="356" width="656" height="250" rx="10" fill="#f7f8f9" stroke="#3a3f45" stroke-width="1.5" stroke-opacity="0.5"/><text x="936" y="384" class="l b">Push to form and dose: the tube is a syringe</text><g transform="translate(920 356)"><clipPath id="cb2"><rect x="0" y="36" width="656" height="200"/></clipPath><g clip-path="url(#cb2)"><g transform="translate(10 -14)"><rect x="40" y="70" width="200" height="4" rx="0" fill="#8fa8c0" stroke="#3a3f45" stroke-width="1.5"/><rect x="40" y="153" width="200" height="4" rx="0" fill="#8fa8c0" stroke="#3a3f45" stroke-width="1.5"/><rect x="240" y="80" width="40" height="4" rx="0" fill="#8fa8c0" stroke="#3a3f45" stroke-width="1.5"/><rect x="240" y="143" width="40" height="4" rx="0" fill="#8fa8c0" stroke="#3a3f45" stroke-width="1.5"/><rect y="74" height="79" fill="#c0504d" opacity="0.8"><animate attributeName="x" dur="8s" repeatCount="indefinite" calcMode="linear" keyTimes="0;0.175;0.25;0.425;0.5;0.675;0.75;0.925;1" values="120;139;139;158;158;177;177;196;120"/><animate attributeName="width" dur="8s" repeatCount="indefinite" calcMode="linear" keyTimes="0;0.175;0.25;0.425;0.5;0.675;0.75;0.925;1" values="120;101;101;82;82;63;63;44;120"/></rect><rect x="240" y="84" height="59" fill="#c0504d" opacity="0.8" width="40"/><g><rect x="-26" y="74" width="26" height="79" rx="3" fill="#4a7fc1" stroke="#3a3f45" stroke-width="2"/><rect x="-110" y="106" width="84" height="14" rx="0" fill="#f28c28" stroke="#3a3f45" stroke-width="1.5"/><animateTransform attributeName="transform" type="translate" dur="8s" repeatCount="indefinite" calcMode="linear" keyTimes="0;0.175;0.25;0.425;0.5;0.675;0.75;0.925;1" values="120 0;139 0;139 0;158 0;158 0;177 0;177 0;196 0;120 0"/></g><g opacity="0"><rect x="0" y="-30" width="19" height="59" fill="#c0504d" stroke="#3a3f45" stroke-width="1.5"/><animateTransform attributeName="transform" type="translate" dur="8s" repeatCount="indefinite" calcMode="linear" keyTimes="0;0;0.175;0.2375;1" values="280 114;280 114;280 114;300 180;300 180"/><animate attributeName="opacity" dur="8s" repeatCount="indefinite" calcMode="discrete" keyTimes="0;0.2437" values="1;0"/></g><g opacity="0"><rect x="0" y="-30" width="19" height="59" fill="#c0504d" stroke="#3a3f45" stroke-width="1.5"/><animateTransform attributeName="transform" type="translate" dur="8s" repeatCount="indefinite" calcMode="linear" keyTimes="0;0.25;0.425;0.4875;1" values="280 114;280 114;280 114;300 180;300 180"/><animate attributeName="opacity" dur="8s" repeatCount="indefinite" calcMode="discrete" keyTimes="0;0.25;0.4938" values="0;1;0"/></g><g opacity="0"><rect x="0" y="-30" width="19" height="59" fill="#c0504d" stroke="#3a3f45" stroke-width="1.5"/><animateTransform attributeName="transform" type="translate" dur="8s" repeatCount="indefinite" calcMode="linear" keyTimes="0;0.5;0.675;0.7375;1" values="280 114;280 114;280 114;300 180;300 180"/><animate attributeName="opacity" dur="8s" repeatCount="indefinite" calcMode="discrete" keyTimes="0;0.5;0.7438" values="0;1;0"/></g><g opacity="0"><rect x="0" y="-30" width="19" height="59" fill="#c0504d" stroke="#3a3f45" stroke-width="1.5"/><animateTransform attributeName="transform" type="translate" dur="8s" repeatCount="indefinite" calcMode="linear" keyTimes="0;0.75;0.925;0.9875;1" values="280 114;280 114;280 114;300 180;300 180"/><animate attributeName="opacity" dur="8s" repeatCount="indefinite" calcMode="discrete" keyTimes="0;0.75;0.9938" values="0;1;0"/></g><g><path d="M0 -40 Q6 0 0 40" fill="none" stroke="#3a3f45" stroke-width="3" stroke-linejoin="round"/><animateTransform attributeName="transform" type="translate" dur="2s" repeatCount="indefinite" calcMode="linear" keyTimes="0;0.7;0.8;0.9;1" values="302 114;302 114;302 80;302 114;302 114"/></g><path d="M300 196 L470 196 L462 214 L308 214 Z" fill="#5a5f66" stroke="#3a3f45" stroke-width="2" stroke-linejoin="round"/><text x="380" y="234" class="s c">pan</text><text x="330" y="70" class="s">sickle cuts every 24 mm</text><text x="330" y="88" class="s">→ 125 g puck, ±3 % by stroke</text><text x="330" y="130" class="s">DN100: 7.85 mL per mm</text><text x="330" y="148" class="s">DN40: 1.13 mL per mm</text><text x="330" y="166" class="s">tomato paste, mustard, quark,</text><text x="330" y="184" class="s">butter dosed by stroke, no scoop</text></g></g></g><rect x="920" y="622" width="656" height="210" rx="10" fill="#f7f8f9" stroke="#3a3f45" stroke-width="1.5" stroke-opacity="0.5"/><text x="936" y="650" class="l b">One tube, many end plates</text><g transform="translate(920 622)"><g transform="translate(0 20)"><circle cx="50" cy="70" r="34" fill="#8fa8c0" stroke="#3a3f45" stroke-width="2"/><line x1="26" y1="40" x2="26" y2="100" stroke="#fff" stroke-width="2"/><line x1="20" y1="46" x2="80" y2="46" stroke="#fff" stroke-width="2"/><line x1="38" y1="40" x2="38" y2="100" stroke="#fff" stroke-width="2"/><line x1="20" y1="58" x2="80" y2="58" stroke="#fff" stroke-width="2"/><line x1="50" y1="40" x2="50" y2="100" stroke="#fff" stroke-width="2"/><line x1="20" y1="70" x2="80" y2="70" stroke="#fff" stroke-width="2"/><line x1="62" y1="40" x2="62" y2="100" stroke="#fff" stroke-width="2"/><line x1="20" y1="82" x2="80" y2="82" stroke="#fff" stroke-width="2"/><line x1="74" y1="40" x2="74" y2="100" stroke="#fff" stroke-width="2"/><line x1="20" y1="94" x2="80" y2="94" stroke="#fff" stroke-width="2"/><text x="50" y="122" class="s c">dice grid</text><circle cx="142" cy="70" r="34" fill="#8fa8c0" stroke="#3a3f45" stroke-width="2"/><circle cx="118" cy="64" r="2" fill="#fff" stroke="#3a3f45" stroke-width="0"/><circle cx="118" cy="73" r="2" fill="#fff" stroke="#3a3f45" stroke-width="0"/><circle cx="118" cy="82" r="2" fill="#fff" stroke="#3a3f45" stroke-width="0"/><circle cx="127" cy="55" r="2" fill="#fff" stroke="#3a3f45" stroke-width="0"/><circle cx="127" cy="64" r="2" fill="#fff" stroke="#3a3f45" stroke-width="0"/><circle cx="127" cy="73" r="2" fill="#fff" stroke="#3a3f45" stroke-width="0"/><circle cx="127" cy="82" r="2" fill="#fff" stroke="#3a3f45" stroke-width="0"/><circle cx="127" cy="91" r="2" fill="#fff" stroke="#3a3f45" stroke-width="0"/><circle cx="136" cy="46" r="2" fill="#fff" stroke="#3a3f45" stroke-width="0"/><circle cx="136" cy="55" r="2" fill="#fff" stroke="#3a3f45" stroke-width="0"/><circle cx="136" cy="64" r="2" fill="#fff" stroke="#3a3f45" stroke-width="0"/><circle cx="136" cy="73" r="2" fill="#fff" stroke="#3a3f45" stroke-width="0"/><circle cx="136" cy="82" r="2" fill="#fff" stroke="#3a3f45" stroke-width="0"/><circle cx="136" cy="91" r="2" fill="#fff" stroke="#3a3f45" stroke-width="0"/><circle cx="145" cy="46" r="2" fill="#fff" stroke="#3a3f45" stroke-width="0"/><circle cx="145" cy="55" r="2" fill="#fff" stroke="#3a3f45" stroke-width="0"/><circle cx="145" cy="64" r="2" fill="#fff" stroke="#3a3f45" stroke-width="0"/><circle cx="145" cy="73" r="2" fill="#fff" stroke="#3a3f45" stroke-width="0"/><circle cx="145" cy="82" r="2" fill="#fff" stroke="#3a3f45" stroke-width="0"/><circle cx="145" cy="91" r="2" fill="#fff" stroke="#3a3f45" stroke-width="0"/><circle cx="154" cy="46" r="2" fill="#fff" stroke="#3a3f45" stroke-width="0"/><circle cx="154" cy="55" r="2" fill="#fff" stroke="#3a3f45" stroke-width="0"/><circle cx="154" cy="64" r="2" fill="#fff" stroke="#3a3f45" stroke-width="0"/><circle cx="154" cy="73" r="2" fill="#fff" stroke="#3a3f45" stroke-width="0"/><circle cx="154" cy="82" r="2" fill="#fff" stroke="#3a3f45" stroke-width="0"/><circle cx="154" cy="91" r="2" fill="#fff" stroke="#3a3f45" stroke-width="0"/><circle cx="163" cy="55" r="2" fill="#fff" stroke="#3a3f45" stroke-width="0"/><circle cx="163" cy="64" r="2" fill="#fff" stroke="#3a3f45" stroke-width="0"/><circle cx="163" cy="73" r="2" fill="#fff" stroke="#3a3f45" stroke-width="0"/><circle cx="163" cy="82" r="2" fill="#fff" stroke="#3a3f45" stroke-width="0"/><text x="142" y="122" class="s c">ricer Ø3</text><circle cx="234" cy="70" r="34" fill="#8fa8c0" stroke="#3a3f45" stroke-width="2"/><circle cx="210" cy="61" r="4.5" fill="#fff" stroke="#3a3f45" stroke-width="0"/><circle cx="210" cy="76" r="4.5" fill="#fff" stroke="#3a3f45" stroke-width="0"/><circle cx="225" cy="46" r="4.5" fill="#fff" stroke="#3a3f45" stroke-width="0"/><circle cx="225" cy="61" r="4.5" fill="#fff" stroke="#3a3f45" stroke-width="0"/><circle cx="225" cy="76" r="4.5" fill="#fff" stroke="#3a3f45" stroke-width="0"/><circle cx="225" cy="91" r="4.5" fill="#fff" stroke="#3a3f45" stroke-width="0"/><circle cx="240" cy="46" r="4.5" fill="#fff" stroke="#3a3f45" stroke-width="0"/><circle cx="240" cy="61" r="4.5" fill="#fff" stroke="#3a3f45" stroke-width="0"/><circle cx="240" cy="76" r="4.5" fill="#fff" stroke="#3a3f45" stroke-width="0"/><circle cx="240" cy="91" r="4.5" fill="#fff" stroke="#3a3f45" stroke-width="0"/><circle cx="255" cy="61" r="4.5" fill="#fff" stroke="#3a3f45" stroke-width="0"/><circle cx="255" cy="76" r="4.5" fill="#fff" stroke="#3a3f45" stroke-width="0"/><text x="234" y="122" class="s c">Spätzle Ø8</text><circle cx="326" cy="70" r="34" fill="#8fa8c0" stroke="#3a3f45" stroke-width="2"/><circle cx="326" cy="70" r="6" fill="#fff" stroke="#3a3f45" stroke-width="1"/><circle cx="344" cy="70" r="6" fill="#fff" stroke="#3a3f45" stroke-width="1"/><circle cx="308" cy="70" r="6" fill="#fff" stroke="#3a3f45" stroke-width="1"/><circle cx="335" cy="85" r="6" fill="#fff" stroke="#3a3f45" stroke-width="1"/><circle cx="317" cy="85" r="6" fill="#fff" stroke="#3a3f45" stroke-width="1"/><circle cx="335" cy="55" r="6" fill="#fff" stroke="#3a3f45" stroke-width="1"/><circle cx="317" cy="55" r="6" fill="#fff" stroke="#3a3f45" stroke-width="1"/><text x="326" y="122" class="s c">orifice</text><circle cx="418" cy="70" r="34" fill="#8fa8c0" stroke="#3a3f45" stroke-width="2"/><line x1="390" y1="50" x2="390" y2="90" stroke="#fff" stroke-width="1"/><line x1="396" y1="50" x2="396" y2="90" stroke="#fff" stroke-width="1"/><line x1="402" y1="50" x2="402" y2="90" stroke="#fff" stroke-width="1"/><line x1="408" y1="50" x2="408" y2="90" stroke="#fff" stroke-width="1"/><line x1="414" y1="50" x2="414" y2="90" stroke="#fff" stroke-width="1"/><line x1="420" y1="50" x2="420" y2="90" stroke="#fff" stroke-width="1"/><line x1="426" y1="50" x2="426" y2="90" stroke="#fff" stroke-width="1"/><line x1="432" y1="50" x2="432" y2="90" stroke="#fff" stroke-width="1"/><line x1="438" y1="50" x2="438" y2="90" stroke="#fff" stroke-width="1"/><line x1="444" y1="50" x2="444" y2="90" stroke="#fff" stroke-width="1"/><text x="418" y="122" class="s c">mesh (foam)</text><circle cx="510" cy="70" r="34" fill="#8fa8c0" stroke="#3a3f45" stroke-width="2"/><rect x="484" y="67" width="52" height="6" rx="0" fill="#fff" stroke="#3a3f45" stroke-width="1"/><text x="510" y="122" class="s c">slot die</text><circle cx="602" cy="70" r="34" fill="#8fa8c0" stroke="#3a3f45" stroke-width="2"/><path d="M576 74 Q602 56 628 66 L626 72 Q602 64 578 80 Z" fill="#fff" stroke="#3a3f45" stroke-width="1.5" stroke-linejoin="round"/><text x="602" y="122" class="s c">blade cap</text><text x="16" y="160" class="s">All plates are loose, held only by the station's clamping force: no fastener anywhere.</text><text x="16" y="178" class="s">Grids are the one shape that traps fibres: reverse jets, bread pig, camera check.</text></g></g><rect x="0" y="840" width="1600" height="60" fill="#eef1f4"/><rect x="0" y="840" width="0" height="4" fill="#f28c28"><animate attributeName="width" dur="30s" repeatCount="indefinite" calcMode="linear" keyTimes="0;1" values="0;1600"/></rect><text x="24" y="872" class="cap" opacity="0">1/6  Fill: the loose piston is the floor; the box tilts potatoes into the upright tube on a load cell<animate attributeName="opacity" dur="30s" repeatCount="indefinite" calcMode="discrete" keyTimes="0;0.1333" values="1;0"/></text><text x="24" y="872" class="cap" opacity="0">2/6  A dicing-grid end plate is laid on the mouth; the gantry flips the tube into the cutting yoke<animate attributeName="opacity" dur="30s" repeatCount="indefinite" calcMode="discrete" keyTimes="0;0.1333;0.25" values="0;1;0"/></text><text x="24" y="872" class="cap" opacity="0">3/6  Ram pushes the piston: the grid cuts sticks, the sickle below cuts them to length — dice fall into the pot<animate attributeName="opacity" dur="30s" repeatCount="indefinite" calcMode="discrete" keyTimes="0;0.25;0.5" values="0;1;0"/></text><text x="24" y="872" class="cap" opacity="0">4/6  Pig: the piston scrapes the bore empty; piston and plate go to the small-parts rack<animate attributeName="opacity" dur="30s" repeatCount="indefinite" calcMode="discrete" keyTimes="0;0.5;0.5667" values="0;1;0"/></text><text x="24" y="872" class="cap" opacity="0">5/6  Torpedo holster: tube slid over a fixed core; wash water forced through 3 mm gaps at 1.5 m/s<animate attributeName="opacity" dur="30s" repeatCount="indefinite" calcMode="discrete" keyTimes="0;0.5667;0.8333" values="0;1;0"/></text><text x="24" y="872" class="cap" opacity="0">6/6  A camera looks down the bore and sees the whole food surface in one image<animate attributeName="opacity" dur="30s" repeatCount="indefinite" calcMode="discrete" keyTimes="0;0.8333" values="0;1"/></text>
</svg>
