<?xml version="1.0" encoding="UTF-8"?>
<svg xmlns="http://www.w3.org/2000/svg" viewBox="0 0 1600 900" width="1600" height="900">
<!-- Source: design/prep/ideas/F-first-principles.md section 6, dosing (S1-S4, S31, S32). Close-ups are schematic, not to one scale; flow rates shown faster than real. -->
<style>text{font-family:system-ui,sans-serif;fill:#2b2f33}.b{font-weight:700}.s{font-size:14px}.m{font-size:16px}.l{font-size:20px}.xl{font-size:24px}.c{text-anchor:middle}.r{text-anchor:end}.h{stroke:#fff;stroke-width:4;paint-order:stroke}.cap{font-size:20px}</style>
<rect width="1600" height="900" fill="#ffffff"/>
<defs><marker id="ah" viewBox="0 0 10 10" refX="8" refY="5" markerWidth="7" markerHeight="7" orient="auto-start-reverse"><path d="M0 0 L10 5 L0 10 z" fill="#3a3f45"/></marker><marker id="ahw" viewBox="0 0 10 10" refX="8" refY="5" markerWidth="7" markerHeight="7" orient="auto-start-reverse"><path d="M0 0 L10 5 L0 10 z" fill="#4aa3df"/></marker><marker id="aho" viewBox="0 0 10 10" refX="8" refY="5" markerWidth="7" markerHeight="7" orient="auto-start-reverse"><path d="M0 0 L10 5 L0 10 z" fill="#f28c28"/></marker><marker id="ahr" viewBox="0 0 10 10" refX="8" refY="5" markerWidth="7" markerHeight="7" orient="auto-start-reverse"><path d="M0 0 L10 5 L0 10 z" fill="#e04a3a"/></marker><marker id="ahg" viewBox="0 0 10 10" refX="8" refY="5" markerWidth="7" markerHeight="7" orient="auto-start-reverse"><path d="M0 0 L10 5 L0 10 z" fill="#6aa84f"/></marker></defs>
<text x="24" y="36" class="xl b">F  Sub-mechanisms (1) — dosing from first principles</text><text x="24" y="62" class="m">Each panel loops on its own. Physics does the metering; nothing fixed touches stored food.</text><text x="1576" y="30" class="s r b">source: F-first-principles.md section 6</text><text x="1576" y="49" class="s r">S1 · S2 · S3 · S4 · S31 · S32</text><rect x="24" y="88" width="512" height="362" rx="10" fill="#f7f8f9" stroke="#3a3f45" stroke-width="1.5" stroke-opacity="0.5"/><text x="40" y="116" class="l b">S1  Hourglass lid</text><clipPath id="cb1"><rect x="24" y="126" width="512" height="324"/></clipPath><g clip-path="url(#cb1)"><g transform="translate(24 88)"><g transform="translate(200 110)"><g><rect x="-50" y="-60" width="100" height="120" rx="4" fill="#f5f0e1" stroke="#3a3f45" stroke-width="2"/><rect x="-48" y="-20" width="96" height="78" fill="#f3ead2"/><rect x="-50" y="-70" width="100" height="10" rx="0" fill="#8fa8c0" stroke="#3a3f45" stroke-width="2"/><rect x="-6" y="-70" width="12" height="10" rx="0" fill="#ffffff" stroke="#3a3f45" stroke-width="1"/><animateTransform attributeName="transform" type="rotate" dur="6s" repeatCount="indefinite" calcMode="linear" keyTimes="0;0.0667;0.1667;0.8333;0.9333;1" values="0 0 0;0 0 0;180 0 0;180 0 0;0 0 0;0 0 0"/></g></g><g opacity="0"><line x1="200" y1="182" x2="200" y2="230" stroke="#efe3c0" stroke-width="8" stroke-dasharray="6 4" stroke-linecap="round"><animate attributeName="stroke-dashoffset" from="10" to="0" dur="0.3s" repeatCount="indefinite"/></line><animate attributeName="opacity" dur="6s" repeatCount="indefinite" calcMode="discrete" keyTimes="0;0.1667;0.8333" values="0;1;0"/></g><path d="M150 216 L156 242 L244 242 L250 216" fill="#8fa8c0" stroke="#3a3f45" stroke-width="2" stroke-linejoin="round"/><rect x="140" y="242" width="120" height="10" rx="0" fill="#d0d4d9" stroke="#3a3f45" stroke-width="2"/><text x="200" y="270" class="s c">scale closes the loop</text><rect x="158" width="84" fill="#efe3c0"><animate attributeName="y" dur="6s" repeatCount="indefinite" calcMode="linear" keyTimes="0;0.1667;0.8333;0.9833;1" values="240;240;222;222;240"/><animate attributeName="height" dur="6s" repeatCount="indefinite" calcMode="linear" keyTimes="0;0.1667;0.8333;0.9833;1" values="0;0;18;18;0"/></rect><text x="290" y="200" class="xl b" opacity="0">0 g<animate attributeName="opacity" dur="6s" repeatCount="indefinite" calcMode="discrete" keyTimes="0;0.1667" values="1;0"/></text><text x="290" y="200" class="xl b" opacity="0">17 g<animate attributeName="opacity" dur="6s" repeatCount="indefinite" calcMode="discrete" keyTimes="0;0.3333;0.5" values="0;1;0"/></text><text x="290" y="200" class="xl b" opacity="0">34 g<animate attributeName="opacity" dur="6s" repeatCount="indefinite" calcMode="discrete" keyTimes="0;0.5;0.6667" values="0;1;0"/></text><text x="290" y="200" class="xl b" opacity="0">51 g<animate attributeName="opacity" dur="6s" repeatCount="indefinite" calcMode="discrete" keyTimes="0;0.6667;0.8333" values="0;1;0"/></text><text x="290" y="200" class="xl b" opacity="0">68 g<animate attributeName="opacity" dur="6s" repeatCount="indefinite" calcMode="discrete" keyTimes="0;0.8333" values="0;1"/></text><text x="290" y="120" class="s">orifice flow is constant,</text><text x="290" y="138" class="s">independent of fill level</text><text x="290" y="156" class="s">(Beverloo)</text></g></g><text x="40" y="398" class="s">Lid with one orifice, no moving part: dose = invert for t seconds.</text><text x="40" y="417" class="s">Rice Ø15 hole: 17 g/s · salt Ø4: 1.5 g/s (±0.1 s = ±0.15 g).</text><text x="40" y="436" class="s b">Feasibility H for free-flowing goods</text><rect x="544" y="88" width="512" height="362" rx="10" fill="#f7f8f9" stroke="#3a3f45" stroke-width="1.5" stroke-opacity="0.5"/><text x="560" y="116" class="l b">S2  Mesh-valve lid for cohesive powder</text><clipPath id="cb2"><rect x="544" y="126" width="512" height="324"/></clipPath><g clip-path="url(#cb2)"><g transform="translate(544 88)"><g transform="translate(200 120)"><g opacity="0"><g><rect x="-50" y="-60" width="100" height="100" rx="4" fill="#f5f0e1" stroke="#3a3f45" stroke-width="2"/><rect x="-48" y="-58" width="96" height="94" fill="#ffffff"/><path d="M-48 36 Q0 0 48 36" fill="#ffffff" stroke="#3a3f45" stroke-width="0" stroke-linejoin="round"/><rect x="-50" y="36" width="100" height="6" rx="0" fill="#9aa1a8" stroke="#3a3f45" stroke-width="1.5"/><line x1="-46" y1="36" x2="-46" y2="42" stroke="#ffffff" stroke-width="1"/><line x1="-38" y1="36" x2="-38" y2="42" stroke="#ffffff" stroke-width="1"/><line x1="-30" y1="36" x2="-30" y2="42" stroke="#ffffff" stroke-width="1"/><line x1="-22" y1="36" x2="-22" y2="42" stroke="#ffffff" stroke-width="1"/><line x1="-14" y1="36" x2="-14" y2="42" stroke="#ffffff" stroke-width="1"/><line x1="-6" y1="36" x2="-6" y2="42" stroke="#ffffff" stroke-width="1"/><line x1="2" y1="36" x2="2" y2="42" stroke="#ffffff" stroke-width="1"/><line x1="10" y1="36" x2="10" y2="42" stroke="#ffffff" stroke-width="1"/><line x1="18" y1="36" x2="18" y2="42" stroke="#ffffff" stroke-width="1"/><line x1="26" y1="36" x2="26" y2="42" stroke="#ffffff" stroke-width="1"/><line x1="34" y1="36" x2="34" y2="42" stroke="#ffffff" stroke-width="1"/><line x1="42" y1="36" x2="42" y2="42" stroke="#ffffff" stroke-width="1"/><animateTransform attributeName="transform" type="translate" values="0 0;3 0;-3 0;0 0" dur="0.08s" repeatCount="indefinite"/></g><animate attributeName="opacity" dur="8s" repeatCount="indefinite" calcMode="discrete" keyTimes="0;0.25;0.625" values="0;1;0"/></g><g><g><rect x="-50" y="-60" width="100" height="100" rx="4" fill="#f5f0e1" stroke="#3a3f45" stroke-width="2"/><rect x="-48" y="-58" width="96" height="94" fill="#ffffff"/><path d="M-48 36 Q0 0 48 36" fill="#ffffff" stroke="#3a3f45" stroke-width="0" stroke-linejoin="round"/><rect x="-50" y="36" width="100" height="6" rx="0" fill="#9aa1a8" stroke="#3a3f45" stroke-width="1.5"/><line x1="-46" y1="36" x2="-46" y2="42" stroke="#ffffff" stroke-width="1"/><line x1="-38" y1="36" x2="-38" y2="42" stroke="#ffffff" stroke-width="1"/><line x1="-30" y1="36" x2="-30" y2="42" stroke="#ffffff" stroke-width="1"/><line x1="-22" y1="36" x2="-22" y2="42" stroke="#ffffff" stroke-width="1"/><line x1="-14" y1="36" x2="-14" y2="42" stroke="#ffffff" stroke-width="1"/><line x1="-6" y1="36" x2="-6" y2="42" stroke="#ffffff" stroke-width="1"/><line x1="2" y1="36" x2="2" y2="42" stroke="#ffffff" stroke-width="1"/><line x1="10" y1="36" x2="10" y2="42" stroke="#ffffff" stroke-width="1"/><line x1="18" y1="36" x2="18" y2="42" stroke="#ffffff" stroke-width="1"/><line x1="26" y1="36" x2="26" y2="42" stroke="#ffffff" stroke-width="1"/><line x1="34" y1="36" x2="34" y2="42" stroke="#ffffff" stroke-width="1"/><line x1="42" y1="36" x2="42" y2="42" stroke="#ffffff" stroke-width="1"/></g><animate attributeName="opacity" dur="8s" repeatCount="indefinite" calcMode="discrete" keyTimes="0;0.25;0.625" values="1;0;1"/></g></g><g opacity="0"><line x1="170" y1="166" x2="170" y2="236" stroke="#f4f1ea" stroke-width="4" stroke-dasharray="2 6" stroke-linecap="round"><animate attributeName="stroke-dashoffset" from="8" to="0" dur="0.25s" repeatCount="indefinite"/></line><line x1="185" y1="166" x2="185" y2="236" stroke="#f4f1ea" stroke-width="4" stroke-dasharray="2 6" stroke-linecap="round"><animate attributeName="stroke-dashoffset" from="8" to="0" dur="0.25s" repeatCount="indefinite"/></line><line x1="200" y1="166" x2="200" y2="236" stroke="#f4f1ea" stroke-width="4" stroke-dasharray="2 6" stroke-linecap="round"><animate attributeName="stroke-dashoffset" from="8" to="0" dur="0.25s" repeatCount="indefinite"/></line><line x1="215" y1="166" x2="215" y2="236" stroke="#f4f1ea" stroke-width="4" stroke-dasharray="2 6" stroke-linecap="round"><animate attributeName="stroke-dashoffset" from="8" to="0" dur="0.25s" repeatCount="indefinite"/></line><line x1="230" y1="166" x2="230" y2="236" stroke="#f4f1ea" stroke-width="4" stroke-dasharray="2 6" stroke-linecap="round"><animate attributeName="stroke-dashoffset" from="8" to="0" dur="0.25s" repeatCount="indefinite"/></line><line x1="170" y1="166" x2="170" y2="236" stroke="#c4b89a" stroke-width="1.5" stroke-dasharray="2 6" stroke-linecap="round"><animate attributeName="stroke-dashoffset" from="8" to="0" dur="0.25s" repeatCount="indefinite"/></line><line x1="185" y1="166" x2="185" y2="236" stroke="#c4b89a" stroke-width="1.5" stroke-dasharray="2 6" stroke-linecap="round"><animate attributeName="stroke-dashoffset" from="8" to="0" dur="0.25s" repeatCount="indefinite"/></line><line x1="200" y1="166" x2="200" y2="236" stroke="#c4b89a" stroke-width="1.5" stroke-dasharray="2 6" stroke-linecap="round"><animate attributeName="stroke-dashoffset" from="8" to="0" dur="0.25s" repeatCount="indefinite"/></line><line x1="215" y1="166" x2="215" y2="236" stroke="#c4b89a" stroke-width="1.5" stroke-dasharray="2 6" stroke-linecap="round"><animate attributeName="stroke-dashoffset" from="8" to="0" dur="0.25s" repeatCount="indefinite"/></line><line x1="230" y1="166" x2="230" y2="236" stroke="#c4b89a" stroke-width="1.5" stroke-dasharray="2 6" stroke-linecap="round"><animate attributeName="stroke-dashoffset" from="8" to="0" dur="0.25s" repeatCount="indefinite"/></line><animate attributeName="opacity" dur="8s" repeatCount="indefinite" calcMode="discrete" keyTimes="0;0.25;0.625" values="0;1;0"/></g><path d="M140 240 L150 280 L250 280 L260 240" fill="#8fa8c0" stroke="#3a3f45" stroke-width="2" stroke-linejoin="round"/><text x="290" y="110" class="s b" opacity="0">at rest: flour arches<animate attributeName="opacity" dur="8s" repeatCount="indefinite" calcMode="discrete" keyTimes="0;0.25;0.625" values="1;0;1"/></text><text x="290" y="128" class="s" opacity="0">over the 1–2 mm mesh,<animate attributeName="opacity" dur="8s" repeatCount="indefinite" calcMode="discrete" keyTimes="0;0.25;0.625" values="1;0;1"/></text><text x="290" y="146" class="s" opacity="0">nothing falls<animate attributeName="opacity" dur="8s" repeatCount="indefinite" calcMode="discrete" keyTimes="0;0.25;0.625" values="1;0;1"/></text><text x="290" y="110" class="s b" opacity="0">vibrated 50–100 Hz:<animate attributeName="opacity" dur="8s" repeatCount="indefinite" calcMode="discrete" keyTimes="0;0.25;0.625" values="0;1;0"/></text><text x="290" y="128" class="s" opacity="0">flour flows, 2–5 g/s<animate attributeName="opacity" dur="8s" repeatCount="indefinite" calcMode="discrete" keyTimes="0;0.25;0.625" values="0;1;0"/></text><text x="290" y="146" class="s" opacity="0">vibration IS the valve<animate attributeName="opacity" dur="8s" repeatCount="indefinite" calcMode="discrete" keyTimes="0;0.25;0.625" values="0;1;0"/></text><path d="M152 118 Q200 92 248 118 L248 154 L152 154 Z" fill="#f4f1ea" stroke="none"/></g></g><text x="560" y="398" class="s">Flour, cocoa, starch, ground spices: the static arch holds;</text><text x="560" y="417" class="s">the valve closes by itself when the vibrator stops.</text><text x="560" y="436" class="s b">Feasibility H (this is a flour sifter)</text><rect x="1064" y="88" width="512" height="362" rx="10" fill="#f7f8f9" stroke="#3a3f45" stroke-width="1.5" stroke-opacity="0.5"/><text x="1080" y="116" class="l b">S3  Kitchen pipette</text><clipPath id="cb3"><rect x="1064" y="126" width="512" height="324"/></clipPath><g clip-path="url(#cb3)"><g transform="translate(1064 88)"><rect x="60" y="170" width="90" height="90" rx="2" fill="#ffffff" stroke="#3a3f45" stroke-width="2"/><rect x="62" y="190" width="86" height="68" fill="#fbfbf7"/><text x="105" y="278" class="s c">opened carton</text><path d="M330 200 L338 260 L452 260 L460 200" fill="#5a5f66" stroke="#3a3f45" stroke-width="2" stroke-linejoin="round"/><text x="395" y="278" class="s c">pot</text><g><rect x="-14" y="-150" width="28" height="70" rx="0" fill="#e9ecef" stroke="#3a3f45" stroke-width="2"/><rect x="-10" y="-80" width="20" height="10" rx="0" fill="#6b4c8a" stroke="#3a3f45" stroke-width="0"/><rect x="-4" y="-70" width="8" height="110" rx="0" fill="#8fa8c0" stroke="#3a3f45" stroke-width="1.5"/><rect x="-12" width="24" height="6" fill="#f28c28" stroke="#3a3f45" stroke-width="1"><animate attributeName="y" dur="8s" repeatCount="indefinite" calcMode="linear" keyTimes="0;0.175;0.3;0.575;0.7;0.75;1" values="-120;-120;-96;-96;-130;-130;-120"/></rect><rect x="-3" width="6" fill="#fbfbf7" stroke="#3a3f45" stroke-width="0.8"><animate attributeName="y" dur="8s" repeatCount="indefinite" calcMode="linear" keyTimes="0;0.175;0.3;0.575;0.7;1" values="40;40;0;0;40;40"/><animate attributeName="height" dur="8s" repeatCount="indefinite" calcMode="linear" keyTimes="0;0.175;0.3;0.575;0.7;1" values="0;0;40;40;0;0"/></rect><animateTransform attributeName="transform" type="translate" dur="8s" repeatCount="indefinite" calcMode="linear" keyTimes="0;0.1;0.325;0.425;0.5;0.575;0.75;0.825;0.925;1" values="105 190;105 222;105 222;105 190;395 190;395 196;395 196;395 190;105 190;105 190"/></g><g opacity="0"><line x1="395" y1="238" x2="395" y2="256" stroke="#fbfbf7" stroke-width="4" stroke-dasharray="4 4" stroke-linecap="round"><animate attributeName="stroke-dashoffset" from="8" to="0" dur="0.2s" repeatCount="indefinite"/></line><animate attributeName="opacity" dur="8s" repeatCount="indefinite" calcMode="discrete" keyTimes="0;0.5875;0.7" values="0;1;0"/></g><text x="140" y="62" class="s">piston stays dry behind a</text><text x="140" y="80" class="s">hydrophobic filter (purple):</text><text x="140" y="98" class="s b">only the steel tip gets wet</text></g></g><text x="1080" y="398" class="s">10 / 50 / 250 mL tips, ±1 % on thin liquids; tips wash in the chamber.</text><text x="1080" y="417" class="s">Works from any open container; oil and cream need a blow-out.</text><text x="1080" y="436" class="s b">Feasibility H</text><rect x="24" y="462" width="512" height="362" rx="10" fill="#f7f8f9" stroke="#3a3f45" stroke-width="1.5" stroke-opacity="0.5"/><text x="40" y="490" class="l b">S4  Core tube for pastes, fats, mince</text><clipPath id="cb4"><rect x="24" y="500" width="512" height="324"/></clipPath><g clip-path="url(#cb4)"><g transform="translate(24 462)"><rect x="110" y="170" width="220" height="80" rx="4" fill="#f5e7b0" stroke="#3a3f45" stroke-width="2"/><text x="220" y="268" class="s c">butter / mince / paste in its box</text><g><rect x="-24" y="-100" width="6" height="100" rx="0" fill="#8fa8c0" stroke="#3a3f45" stroke-width="1.5"/><rect x="18" y="-100" width="6" height="100" rx="0" fill="#8fa8c0" stroke="#3a3f45" stroke-width="1.5"/><rect x="-18" width="36" height="35" fill="#f5e7b0" stroke="#3a3f45" stroke-width="1" opacity="0"><animate attributeName="opacity" dur="8s" repeatCount="indefinite" calcMode="linear" keyTimes="0;0.275;0.2875;0.775;0.7875;1" values="0;0;1;1;0;0"/><animate attributeName="y" dur="8s" repeatCount="indefinite" calcMode="linear" keyTimes="0;0.625;0.775;1" values="-35;-35;0;0"/></rect><rect x="-16" width="32" height="8" fill="#4a7fc1" stroke="#3a3f45" stroke-width="1"><animate attributeName="y" dur="8s" repeatCount="indefinite" calcMode="linear" keyTimes="0;0.625;0.775;0.875;1" values="-110;-43;-8;-110;-110"/></rect><rect x="-4" y="-170" width="8" height="60" rx="0" fill="#f28c28" stroke="#3a3f45" stroke-width="1.5"/><animateTransform attributeName="transform" type="translate" dur="8s" repeatCount="indefinite" calcMode="linear" keyTimes="0;0.05;0.2;0.275;0.4;0.525;0.8;0.925;1" values="220 150;220 150;220 205;220 205;220 150;400 150;400 150;220 150;220 150"/></g><g opacity="0"><rect x="202" y="170" width="36" height="35" fill="#e9d8a0" stroke="#3a3f45" stroke-width="1"/><animate attributeName="opacity" dur="8s" repeatCount="indefinite" calcMode="discrete" keyTimes="0;0.2875" values="0;1"/></g><g opacity="0"><rect x="382" y="0" width="36" height="35" fill="#f5e7b0" stroke="#3a3f45" stroke-width="1"/><animateTransform attributeName="transform" type="translate" dur="8s" repeatCount="indefinite" calcMode="linear" keyTimes="0;0.775;0.85;1" values="0 150;0 150;0 214;0 214"/><animate attributeName="opacity" dur="8s" repeatCount="indefinite" calcMode="discrete" keyTimes="0;0.775" values="0;1"/></g><rect x="360" y="250" width="80" height="8" rx="0" fill="#8fa8c0" stroke="#3a3f45" stroke-width="2"/><text x="400" y="274" class="s c">into the pan</text><text x="30" y="70" class="s">push in, lift,</text><text x="30" y="88" class="s">eject</text></g></g><text x="40" y="772" class="s">Ø60 × 35 mm of mince = a 100 g Frikadelle, already formed.</text><text x="40" y="791" class="s">Residue: wall film only; the last 15 % of the box needs a scraper.</text><text x="40" y="810" class="s b">Feasibility M–H</text><rect x="544" y="462" width="512" height="362" rx="10" fill="#f7f8f9" stroke="#3a3f45" stroke-width="1.5" stroke-opacity="0.5"/><text x="560" y="490" class="l b">S31  Salt as brine (cheapest big win)</text><clipPath id="cb5"><rect x="544" y="500" width="512" height="324"/></clipPath><g clip-path="url(#cb5)"><g transform="translate(544 462)"><rect x="70" y="120" width="110" height="120" rx="6" fill="#eef6fb" stroke="#3a3f45" stroke-width="2"/><rect x="72" y="150" width="106" height="88" fill="#d8ecf7"/><text x="125" y="258" class="s c">saturated brine 26 %</text><text x="125" y="274" class="s c">0.31 g salt per mL</text><path d="M300 180 L310 240 L450 240 L460 180" fill="#5a5f66" stroke="#3a3f45" stroke-width="2" stroke-linejoin="round"/><text x="380" y="260" class="s c">pot</text><g><rect x="-4" y="-60" width="8" height="90" rx="0" fill="#8fa8c0" stroke="#3a3f45" stroke-width="1.5"/><rect x="-12" y="-80" width="24" height="22" rx="0" fill="#e9ecef" stroke="#3a3f45" stroke-width="2"/><animateTransform attributeName="transform" type="translate" dur="6s" repeatCount="indefinite" calcMode="linear" keyTimes="0;0.1;0.2333;0.3333;0.4667;0.5333;0.8333;0.9333;1" values="125 140;125 180;125 180;125 120;380 120;380 150;380 150;125 140;125 140"/></g><circle r="4" fill="#d8ecf7" stroke="#3a3f45" stroke-width="1" opacity="0"><animateTransform attributeName="transform" type="translate" dur="6s" repeatCount="indefinite" calcMode="linear" keyTimes="0;0.5667;0.6333;1" values="380 182;380 182;380 232;380 232"/><animate attributeName="opacity" dur="6s" repeatCount="indefinite" calcMode="discrete" keyTimes="0;0.5667;0.6417" values="0;1;0"/></circle><circle r="4" fill="#d8ecf7" stroke="#3a3f45" stroke-width="1" opacity="0"><animateTransform attributeName="transform" type="translate" dur="6s" repeatCount="indefinite" calcMode="linear" keyTimes="0;0.6333;0.7;1" values="380 182;380 182;380 232;380 232"/><animate attributeName="opacity" dur="6s" repeatCount="indefinite" calcMode="discrete" keyTimes="0;0.6333;0.7083" values="0;1;0"/></circle><circle r="4" fill="#d8ecf7" stroke="#3a3f45" stroke-width="1" opacity="0"><animateTransform attributeName="transform" type="translate" dur="6s" repeatCount="indefinite" calcMode="linear" keyTimes="0;0.7;0.7667;1" values="380 182;380 182;380 232;380 232"/><animate attributeName="opacity" dur="6s" repeatCount="indefinite" calcMode="discrete" keyTimes="0;0.7;0.775" values="0;1;0"/></circle><text x="200" y="80" class="m b c">2 g salt = 6.4 mL; ±0.1 mL = ±0.03 g</text><text x="200" y="100" class="s c">no caking, no powder near steam</text></g></g><text x="560" y="772" class="s">The most frequent seasoning is dosed by the pipette; sugar syrup and</text><text x="560" y="791" class="s">starch slurry work the same way. Changes nothing on the plate.</text><text x="560" y="810" class="s b">Feasibility H</text><rect x="1064" y="462" width="512" height="362" rx="10" fill="#f7f8f9" stroke="#3a3f45" stroke-width="1.5" stroke-opacity="0.5"/><text x="1080" y="490" class="l b">S32  Box-in-box colander</text><clipPath id="cb6"><rect x="1064" y="500" width="512" height="324"/></clipPath><g clip-path="url(#cb6)"><g transform="translate(1064 462)"><rect x="130" y="150" width="240" height="100" rx="4" fill="#f5f0e1" stroke="#3a3f45" stroke-width="2"/><text x="250" y="270" class="s c">outer box stays clean and dry</text><g><path d="M140 0 L150 100 L350 100 L360 0" fill="#8fa8c0" stroke="#3a3f45" stroke-width="2" stroke-linejoin="round"/><line x1="160" y1="10" x2="164" y2="94" stroke="#ffffff" stroke-width="2"/><line x1="180" y1="10" x2="183" y2="94" stroke="#ffffff" stroke-width="2"/><line x1="200" y1="10" x2="202" y2="94" stroke="#ffffff" stroke-width="2"/><line x1="220" y1="10" x2="221" y2="94" stroke="#ffffff" stroke-width="2"/><line x1="240" y1="10" x2="240" y2="94" stroke="#ffffff" stroke-width="2"/><line x1="260" y1="10" x2="259" y2="94" stroke="#ffffff" stroke-width="2"/><line x1="280" y1="10" x2="278" y2="94" stroke="#ffffff" stroke-width="2"/><line x1="300" y1="10" x2="297" y2="94" stroke="#ffffff" stroke-width="2"/><line x1="320" y1="10" x2="316" y2="94" stroke="#ffffff" stroke-width="2"/><line x1="340" y1="10" x2="335" y2="94" stroke="#ffffff" stroke-width="2"/><circle cx="190" cy="70" r="14" fill="#6aa84f" stroke="#3a3f45" stroke-width="1.5"/><circle cx="224" cy="70" r="14" fill="#6aa84f" stroke="#3a3f45" stroke-width="1.5"/><circle cx="258" cy="70" r="14" fill="#6aa84f" stroke="#3a3f45" stroke-width="1.5"/><circle cx="292" cy="70" r="14" fill="#6aa84f" stroke="#3a3f45" stroke-width="1.5"/><circle cx="326" cy="70" r="14" fill="#6aa84f" stroke="#3a3f45" stroke-width="1.5"/><animateTransform attributeName="transform" type="translate" dur="8s" repeatCount="indefinite" calcMode="linear" keyTimes="0;0.125;0.275;0.8;0.95;1" values="0 150;0 150;0 80;0 80;0 150;0 150"/></g><g opacity="0"><line x1="170" y1="76" x2="170" y2="110" stroke="#4aa3df" stroke-width="3" stroke-dasharray="6 6" stroke-linecap="round"><animate attributeName="stroke-dashoffset" from="12" to="0" dur="0.25s" repeatCount="indefinite"/></line><line x1="210" y1="76" x2="210" y2="110" stroke="#4aa3df" stroke-width="3" stroke-dasharray="6 6" stroke-linecap="round"><animate attributeName="stroke-dashoffset" from="12" to="0" dur="0.25s" repeatCount="indefinite"/></line><line x1="250" y1="76" x2="250" y2="110" stroke="#4aa3df" stroke-width="3" stroke-dasharray="6 6" stroke-linecap="round"><animate attributeName="stroke-dashoffset" from="12" to="0" dur="0.25s" repeatCount="indefinite"/></line><line x1="290" y1="76" x2="290" y2="110" stroke="#4aa3df" stroke-width="3" stroke-dasharray="6 6" stroke-linecap="round"><animate attributeName="stroke-dashoffset" from="12" to="0" dur="0.25s" repeatCount="indefinite"/></line><line x1="330" y1="76" x2="330" y2="110" stroke="#4aa3df" stroke-width="3" stroke-dasharray="6 6" stroke-linecap="round"><animate attributeName="stroke-dashoffset" from="12" to="0" dur="0.25s" repeatCount="indefinite"/></line><animate attributeName="opacity" dur="8s" repeatCount="indefinite" calcMode="discrete" keyTimes="0;0.325;0.625" values="0;1;0"/></g><g opacity="0"><line x1="170" y1="182" x2="170" y2="230" stroke="#4aa3df" stroke-width="3" stroke-dasharray="6 6" stroke-linecap="round"><animate attributeName="stroke-dashoffset" from="12" to="0" dur="0.25s" repeatCount="indefinite"/></line><line x1="210" y1="182" x2="210" y2="230" stroke="#4aa3df" stroke-width="3" stroke-dasharray="6 6" stroke-linecap="round"><animate attributeName="stroke-dashoffset" from="12" to="0" dur="0.25s" repeatCount="indefinite"/></line><line x1="250" y1="182" x2="250" y2="230" stroke="#4aa3df" stroke-width="3" stroke-dasharray="6 6" stroke-linecap="round"><animate attributeName="stroke-dashoffset" from="12" to="0" dur="0.25s" repeatCount="indefinite"/></line><line x1="290" y1="182" x2="290" y2="230" stroke="#4aa3df" stroke-width="3" stroke-dasharray="6 6" stroke-linecap="round"><animate attributeName="stroke-dashoffset" from="12" to="0" dur="0.25s" repeatCount="indefinite"/></line><line x1="330" y1="182" x2="330" y2="230" stroke="#4aa3df" stroke-width="3" stroke-dasharray="6 6" stroke-linecap="round"><animate attributeName="stroke-dashoffset" from="12" to="0" dur="0.25s" repeatCount="indefinite"/></line><animate attributeName="opacity" dur="8s" repeatCount="indefinite" calcMode="discrete" keyTimes="0;0.35;0.675" values="0;1;0"/></g><text x="250" y="66" class="s c b" opacity="0">perforated liner lifts out: wash basket and colander<animate attributeName="opacity" dur="8s" repeatCount="indefinite" calcMode="discrete" keyTimes="0;0.125" values="0;1"/></text></g></g><text x="1080" y="772" class="s">Produce stored in a perforated liner inside its box (vented storage);</text><text x="1080" y="791" class="s">the liner is wash basket, colander and pouring aid.</text><text x="1080" y="810" class="s b">Feasibility H; one more ware type</text>
</svg>
