<?xml version="1.0" encoding="UTF-8"?>
<svg xmlns="http://www.w3.org/2000/svg" viewBox="0 0 1600 900" width="1600" height="900">
<!-- Source: design/prep/gaps/G-produce.md section 2.2 (GP-25). The blade turning round the stalk is shown by mirroring it left/right in section. Head Ø 150 at 2 px/mm, florets simplified to 7 in the section plane. -->
<style>text{font-family:system-ui,sans-serif;fill:#2b2f33}.b{font-weight:700}.s{font-size:14px}.m{font-size:16px}.l{font-size:20px}.xl{font-size:24px}.c{text-anchor:middle}.r{text-anchor:end}.h{stroke:#fff;stroke-width:4;paint-order:stroke}.cap{font-size:20px}</style>
<rect width="1600" height="900" fill="#ffffff"/>
<text x="24" y="36" class="xl b">GP-25  Cauliflower florets: cone cut round the stalk</text>
<text x="24" y="62" class="m">Cut away what joins the florets — the stalk core — instead of picking florets one by one (industrial floretting).</text>
<text x="1576" y="30" class="s r b">G-produce · G2 florets (recommended, conf. M)</text>
<text x="1576" y="49" class="s r">cone Ø 60 × 50 mm, blade at 25°</text>
<text x="1576" y="68" class="s r">20 s per head · crumbs 5–10 %</text>
<text x="1576" y="87" class="s r">GP-26: or cook the head whole, portion after</text>
<text x="60" y="128" class="m b">SECTION — cauliflower head stalk-up in a bowl nest (2 px per mm)</text>
<path d="M250,470 Q250,700 480,700 Q710,700 710,470" fill="none" stroke="#8fa8c0" stroke-width="10" opacity="0.6"/>
<path d="M250,470 Q250,700 480,700 Q710,700 710,470" fill="none" stroke="#3a3f45" stroke-width="2"/>
<text x="720" y="600" class="s h">bowl nest</text>
<g><line x1="451" y1="439" x2="367.8" y2="466.5" stroke="#e8e2c8" stroke-width="22" stroke-linecap="round"/><line x1="451" y1="439" x2="367.8" y2="466.5" stroke="#b0a888" stroke-width="1.5"/><circle cx="367.8" cy="466.5" r="30" fill="#f3efdc" stroke="#3a3f45" stroke-width="1.8"/><circle cx="348.5" cy="449.1" r="13" fill="#f3efdc" stroke="#3a3f45" stroke-width="1.5"/><circle cx="342.3" cy="461.1" r="13" fill="#f3efdc" stroke="#3a3f45" stroke-width="1.5"/><circle cx="343.0" cy="474.5" r="13" fill="#f3efdc" stroke="#3a3f45" stroke-width="1.5"/><circle cx="350.4" cy="485.8" r="13" fill="#f3efdc" stroke="#3a3f45" stroke-width="1.5"/><circle cx="362.4" cy="491.9" r="13" fill="#f3efdc" stroke="#3a3f45" stroke-width="1.5"/><circle cx="367.8" cy="466.5" r="27" fill="#f3efdc"/><animateTransform attributeName="transform" type="translate" values="0 0;0 0;-24.7 43.1;-24.7 43.1;0 0;0 0" keyTimes="0;0.65;0.68333;0.975;0.99167;1" dur="24s" repeatCount="indefinite"/></g>
<g><line x1="457" y1="450" x2="392.3" y2="509.0" stroke="#e8e2c8" stroke-width="22" stroke-linecap="round"/><line x1="457" y1="450" x2="392.3" y2="509.0" stroke="#b0a888" stroke-width="1.5"/><circle cx="392.3" cy="509.0" r="30" fill="#f3efdc" stroke="#3a3f45" stroke-width="1.8"/><circle cx="367.6" cy="500.9" r="13" fill="#f3efdc" stroke="#3a3f45" stroke-width="1.5"/><circle cx="366.9" cy="514.4" r="13" fill="#f3efdc" stroke="#3a3f45" stroke-width="1.5"/><circle cx="373.0" cy="526.4" r="13" fill="#f3efdc" stroke="#3a3f45" stroke-width="1.5"/><circle cx="384.3" cy="533.7" r="13" fill="#f3efdc" stroke="#3a3f45" stroke-width="1.5"/><circle cx="397.7" cy="534.4" r="13" fill="#f3efdc" stroke="#3a3f45" stroke-width="1.5"/><circle cx="392.3" cy="509.0" r="27" fill="#f3efdc"/><animateTransform attributeName="transform" type="translate" values="0 0;0 0;-19.3 46.7;-19.3 46.7;0 0;0 0" keyTimes="0;0.64167;0.675;0.975;0.99167;1" dur="24s" repeatCount="indefinite"/></g>
<g><line x1="467" y1="457" x2="432.0" y2="537.8" stroke="#e8e2c8" stroke-width="22" stroke-linecap="round"/><line x1="467" y1="457" x2="432.0" y2="537.8" stroke="#b0a888" stroke-width="1.5"/><circle cx="432.0" cy="537.8" r="30" fill="#f3efdc" stroke="#3a3f45" stroke-width="1.8"/><circle cx="406.1" cy="540.5" r="13" fill="#f3efdc" stroke="#3a3f45" stroke-width="1.5"/><circle cx="411.0" cy="553.1" r="13" fill="#f3efdc" stroke="#3a3f45" stroke-width="1.5"/><circle cx="421.4" cy="561.6" r="13" fill="#f3efdc" stroke="#3a3f45" stroke-width="1.5"/><circle cx="434.7" cy="563.7" r="13" fill="#f3efdc" stroke="#3a3f45" stroke-width="1.5"/><circle cx="447.3" cy="558.8" r="13" fill="#f3efdc" stroke="#3a3f45" stroke-width="1.5"/><circle cx="432.0" cy="537.8" r="27" fill="#f3efdc"/><animateTransform attributeName="transform" type="translate" values="0 0;0 0;-10.6 49.1;-10.6 49.1;0 0;0 0" keyTimes="0;0.63333;0.66667;0.975;0.99167;1" dur="24s" repeatCount="indefinite"/></g>
<g><line x1="480" y1="460" x2="480.0" y2="548.0" stroke="#e8e2c8" stroke-width="22" stroke-linecap="round"/><line x1="480" y1="460" x2="480.0" y2="548.0" stroke="#b0a888" stroke-width="1.5"/><circle cx="480.0" cy="548.0" r="30" fill="#f3efdc" stroke="#3a3f45" stroke-width="1.8"/><circle cx="457.5" cy="561.0" r="13" fill="#f3efdc" stroke="#3a3f45" stroke-width="1.5"/><circle cx="467.0" cy="570.5" r="13" fill="#f3efdc" stroke="#3a3f45" stroke-width="1.5"/><circle cx="480.0" cy="574.0" r="13" fill="#f3efdc" stroke="#3a3f45" stroke-width="1.5"/><circle cx="493.0" cy="570.5" r="13" fill="#f3efdc" stroke="#3a3f45" stroke-width="1.5"/><circle cx="502.5" cy="561.0" r="13" fill="#f3efdc" stroke="#3a3f45" stroke-width="1.5"/><circle cx="480.0" cy="548.0" r="27" fill="#f3efdc"/><animateTransform attributeName="transform" type="translate" values="0 0;0 0;0.0 50.0;0.0 50.0;0 0;0 0" keyTimes="0;0.625;0.65833;0.975;0.99167;1" dur="24s" repeatCount="indefinite"/></g>
<g><line x1="492" y1="457" x2="528.0" y2="537.8" stroke="#e8e2c8" stroke-width="22" stroke-linecap="round"/><line x1="492" y1="457" x2="528.0" y2="537.8" stroke="#b0a888" stroke-width="1.5"/><circle cx="528.0" cy="537.8" r="30" fill="#f3efdc" stroke="#3a3f45" stroke-width="1.8"/><circle cx="512.7" cy="558.8" r="13" fill="#f3efdc" stroke="#3a3f45" stroke-width="1.5"/><circle cx="525.3" cy="563.7" r="13" fill="#f3efdc" stroke="#3a3f45" stroke-width="1.5"/><circle cx="538.6" cy="561.6" r="13" fill="#f3efdc" stroke="#3a3f45" stroke-width="1.5"/><circle cx="549.0" cy="553.1" r="13" fill="#f3efdc" stroke="#3a3f45" stroke-width="1.5"/><circle cx="553.9" cy="540.5" r="13" fill="#f3efdc" stroke="#3a3f45" stroke-width="1.5"/><circle cx="528.0" cy="537.8" r="27" fill="#f3efdc"/><animateTransform attributeName="transform" type="translate" values="0 0;0 0;10.6 49.1;10.6 49.1;0 0;0 0" keyTimes="0;0.63333;0.66667;0.975;0.99167;1" dur="24s" repeatCount="indefinite"/></g>
<g><line x1="502" y1="450" x2="567.7" y2="509.0" stroke="#e8e2c8" stroke-width="22" stroke-linecap="round"/><line x1="502" y1="450" x2="567.7" y2="509.0" stroke="#b0a888" stroke-width="1.5"/><circle cx="567.7" cy="509.0" r="30" fill="#f3efdc" stroke="#3a3f45" stroke-width="1.8"/><circle cx="562.3" cy="534.4" r="13" fill="#f3efdc" stroke="#3a3f45" stroke-width="1.5"/><circle cx="575.7" cy="533.7" r="13" fill="#f3efdc" stroke="#3a3f45" stroke-width="1.5"/><circle cx="587.0" cy="526.4" r="13" fill="#f3efdc" stroke="#3a3f45" stroke-width="1.5"/><circle cx="593.1" cy="514.4" r="13" fill="#f3efdc" stroke="#3a3f45" stroke-width="1.5"/><circle cx="592.4" cy="500.9" r="13" fill="#f3efdc" stroke="#3a3f45" stroke-width="1.5"/><circle cx="567.7" cy="509.0" r="27" fill="#f3efdc"/><animateTransform attributeName="transform" type="translate" values="0 0;0 0;19.3 46.7;19.3 46.7;0 0;0 0" keyTimes="0;0.64167;0.675;0.975;0.99167;1" dur="24s" repeatCount="indefinite"/></g>
<g><line x1="508" y1="439" x2="592.2" y2="466.5" stroke="#e8e2c8" stroke-width="22" stroke-linecap="round"/><line x1="508" y1="439" x2="592.2" y2="466.5" stroke="#b0a888" stroke-width="1.5"/><circle cx="592.2" cy="466.5" r="30" fill="#f3efdc" stroke="#3a3f45" stroke-width="1.8"/><circle cx="597.6" cy="491.9" r="13" fill="#f3efdc" stroke="#3a3f45" stroke-width="1.5"/><circle cx="609.6" cy="485.8" r="13" fill="#f3efdc" stroke="#3a3f45" stroke-width="1.5"/><circle cx="617.0" cy="474.5" r="13" fill="#f3efdc" stroke="#3a3f45" stroke-width="1.5"/><circle cx="617.7" cy="461.1" r="13" fill="#f3efdc" stroke="#3a3f45" stroke-width="1.5"/><circle cx="611.5" cy="449.1" r="13" fill="#f3efdc" stroke="#3a3f45" stroke-width="1.5"/><circle cx="592.2" cy="466.5" r="27" fill="#f3efdc"/><animateTransform attributeName="transform" type="translate" values="0 0;0 0;24.7 43.1;24.7 43.1;0 0;0 0" keyTimes="0;0.65;0.68333;0.975;0.99167;1" dur="24s" repeatCount="indefinite"/></g>
<g><path d="M440,395 L520,395 L480,500 Z" fill="#e8e2c8" stroke="#3a3f45" stroke-width="2"/><animateTransform attributeName="transform" type="translate" values="0 0;0 0;0 -160;260 -160;260 -160;260 -160" keyTimes="0;0.55833;0.60833;0.65;0.675;1" dur="24s" repeatCount="indefinite"/><animate attributeName="opacity" values="1;1;0;0;1;1" keyTimes="0;0.66667;0.67917;0.98333;0.99583;1" dur="24s" calcMode="linear" repeatCount="indefinite"/></g>
<g><rect x="440" y="300" width="80" height="95" fill="#dfe6c0" stroke="#3a3f45" stroke-width="2"/><path d="M440,350 C400,330 360,300 330,250 M520,350 C560,330 600,300 630,250" stroke="#7aa04a" stroke-width="14" fill="none" stroke-linecap="round"/><animateTransform attributeName="transform" type="translate" values="0 0;0 0;-40 -20;-380 -40;-380 -40" keyTimes="0;0.175;0.2;0.24167;1" dur="24s" repeatCount="indefinite"/><animate attributeName="opacity" values="1;1;0;0;1;1" keyTimes="0;0.225;0.24583;0.98333;0.99583;1" dur="24s" calcMode="linear" repeatCount="indefinite"/></g>
<g><path d="M0,-4 L240,-4 L250,4 L0,4 Z" fill="#8fa8c0" stroke="#3a3f45" stroke-width="1.5"/><rect x="240" y="-10" width="70" height="20" rx="5" fill="#f28c28" stroke="#3a3f45" stroke-width="2"/><animateTransform attributeName="transform" type="translate" values="620 395;620 395;330 395;330 395;620 395;620 395" keyTimes="0;0.08333;0.15833;0.18333;0.20833;1" dur="24s" repeatCount="indefinite"/><animate attributeName="opacity" values="0;0;1;1;0;0" keyTimes="0;0.05417;0.06667;0.21667;0.22917;1" dur="24s" calcMode="linear" repeatCount="indefinite"/></g>
<g><text x="640" y="380" class="s h">1  flat cut across the stalk: leaf bases off</text><animate attributeName="opacity" values="0;0;1;1;0;0" keyTimes="0;0.05417;0.06667;0.25;0.2625;1" dur="24s" calcMode="linear" repeatCount="indefinite"/></g>
<g transform="translate(480,0)"><g><animateTransform attributeName="transform" type="scale" values="1 1;1 1;-1 1;1 1;-1 1;1 1;1 1" keyTimes="0;0.29167;0.35417;0.41667;0.47917;0.54167;1" dur="24s" repeatCount="indefinite"/><g transform="translate(-480,0)"><path d="M480,503 L470,500 L433,398 L444,394 Z" fill="#8fa8c0" stroke="#3a3f45" stroke-width="1.5"/><path d="M433,398 L444,394 L426,338 L412,342 Z" fill="#f28c28" stroke="#3a3f45" stroke-width="2"/></g></g><animate attributeName="opacity" values="0;0;1;1;0;0" keyTimes="0;0.25417;0.26667;0.55;0.5625;1" dur="24s" calcMode="linear" repeatCount="indefinite"/></g>
<path d="M440,395 L480,500 L520,395" fill="none" stroke="#e04a3a" stroke-width="3" stroke-dasharray="230" stroke-dashoffset="230"><animate attributeName="stroke-dashoffset" values="230;230;0;0" keyTimes="0;0.29167;0.54167;1" dur="24s" calcMode="linear" repeatCount="indefinite"/><animate attributeName="opacity" values="0;0;1;1;0;0" keyTimes="0;0.27917;0.29167;0.56667;0.57917;1" dur="24s" calcMode="linear" repeatCount="indefinite"/></path>
<g><text x="660" y="470" class="s h">2  blade at 25° turns once round the stalk:</text><animate attributeName="opacity" values="0;0;1;1;0;0" keyTimes="0;0.25417;0.26667;0.56667;0.57917;1" dur="24s" calcMode="linear" repeatCount="indefinite"/></g>
<g><text x="660" y="488" class="s h">    cone Ø 60 × 50 cut out</text><animate attributeName="opacity" values="0;0;1;1;0;0" keyTimes="0;0.25417;0.26667;0.56667;0.57917;1" dur="24s" calcMode="linear" repeatCount="indefinite"/></g>
<g><text x="640" y="300" class="s h">3  core lifted out: florets fall free</text><animate attributeName="opacity" values="0;0;1;1;0;0" keyTimes="0;0.54583;0.55833;0.6875;0.7;1" dur="24s" calcMode="linear" repeatCount="indefinite"/></g>
<text x="1080" y="128" class="m b">SIZING — pieces > 45 mm through a coarse wedge grid</text>
<rect x="1150" y="470" width="260" height="14" fill="#d0d4d9" stroke="#3a3f45" stroke-width="2"/>
<path d="M1180,470 L1186,440 L1192,470 Z" fill="#8fa8c0" stroke="#3a3f45" stroke-width="1.5"/>
<path d="M1245,470 L1251,440 L1257,470 Z" fill="#8fa8c0" stroke="#3a3f45" stroke-width="1.5"/>
<path d="M1310,470 L1316,440 L1322,470 Z" fill="#8fa8c0" stroke="#3a3f45" stroke-width="1.5"/>
<path d="M1375,470 L1381,440 L1387,470 Z" fill="#8fa8c0" stroke="#3a3f45" stroke-width="1.5"/>
<text x="1420" y="470" class="s h">wedge grid</text>
<defs><clipPath id="cl"><rect x="1150" y="250" width="101" height="200"/></clipPath><clipPath id="cr"><rect x="1251" y="250" width="160" height="200"/></clipPath></defs>
<g><g><g clip-path="url(#cl)"><line x1="1251" y1="320" x2="1251" y2="400" stroke="#e8e2c8" stroke-width="22"/><circle cx="1228.0" cy="352.1" r="26" fill="#f3efdc" stroke="#3a3f45" stroke-width="1.8"/><circle cx="1238.3" cy="357.9" r="26" fill="#f3efdc" stroke="#3a3f45" stroke-width="1.8"/><circle cx="1251.0" cy="360.0" r="26" fill="#f3efdc" stroke="#3a3f45" stroke-width="1.8"/><circle cx="1263.7" cy="357.9" r="26" fill="#f3efdc" stroke="#3a3f45" stroke-width="1.8"/><circle cx="1274.0" cy="352.1" r="26" fill="#f3efdc" stroke="#3a3f45" stroke-width="1.8"/></g><animateTransform attributeName="transform" type="translate" values="0 0;0 0;-8 150;-8 150" keyTimes="0;0.72917;0.8125;1" dur="24s" repeatCount="indefinite"/></g><g><g clip-path="url(#cr)"><line x1="1251" y1="320" x2="1251" y2="400" stroke="#e8e2c8" stroke-width="22"/><circle cx="1228.0" cy="352.1" r="26" fill="#f3efdc" stroke="#3a3f45" stroke-width="1.8"/><circle cx="1238.3" cy="357.9" r="26" fill="#f3efdc" stroke="#3a3f45" stroke-width="1.8"/><circle cx="1251.0" cy="360.0" r="26" fill="#f3efdc" stroke="#3a3f45" stroke-width="1.8"/><circle cx="1263.7" cy="357.9" r="26" fill="#f3efdc" stroke="#3a3f45" stroke-width="1.8"/><circle cx="1274.0" cy="352.1" r="26" fill="#f3efdc" stroke="#3a3f45" stroke-width="1.8"/></g><animateTransform attributeName="transform" type="translate" values="0 0;0 0;8 150;8 150" keyTimes="0;0.72917;0.8125;1" dur="24s" repeatCount="indefinite"/></g><animate attributeName="opacity" values="0;0;1;1;0;0" keyTimes="0;0.68333;0.7;0.97917;0.99583;1" dur="24s" calcMode="linear" repeatCount="indefinite"/></g>
<g><rect x="1196" y="0" width="110" height="16" fill="#f28c28" stroke="#3a3f45" stroke-width="2"/><rect x="1240" y="-70" width="22" height="70" fill="#f28c28" stroke="#3a3f45" stroke-width="2"/><animateTransform attributeName="transform" type="translate" values="0 230;0 230;0 260;0 420;0 230;0 230" keyTimes="0;0.70833;0.72917;0.8125;0.85417;1" dur="24s" repeatCount="indefinite"/><animate attributeName="opacity" values="0;0;1;1;0;0" keyTimes="0;0.67917;0.69167;0.875;0.8875;1" dur="24s" calcMode="linear" repeatCount="indefinite"/></g>
<path d="M1150,640 L1170,700 L1390,700 L1410,640" fill="#f4f6f8" stroke="#3a3f45" stroke-width="2"/>
<text x="1280" y="725" class="s h c">florets ≤ 45 mm → cooking</text>

<text x="1080" y="780" class="s b">Broccoli:</text><text x="1080" y="798" class="s">one flat cut where the stalk branches does the same.</text>
<text x="60" y="780" class="s h">stalk cut 40–80 N with draw · 20 s per head · crumbs 5–10 % (go into the dish)</text>
<line x1="24" y1="836" x2="1576" y2="836" stroke="#c9ced4" stroke-width="1.5"/>
<g opacity="1"><text x="40" y="868" class="cap"><tspan class="b">1/5</tspan>  The head stands stalk-up in a bowl nest; the camera only has to know which side is the stalk.</text><animate attributeName="opacity" values="1;0;0" keyTimes="0;0.06667;1" dur="24s" calcMode="discrete" repeatCount="indefinite"/></g>
<g opacity="0"><text x="40" y="868" class="cap"><tspan class="b">2/5</tspan>  A flat cut across the stalk, 10–15 mm above the curd rim, removes the leaf bases.</text><animate attributeName="opacity" values="0;1;0;0" keyTimes="0;0.06667;0.25833;1" dur="24s" calcMode="discrete" repeatCount="indefinite"/></g>
<g opacity="0"><text x="40" y="868" class="cap"><tspan class="b">3/5</tspan>  A blade set at 25° to the axis turns once round the stalk and cuts out a cone Ø 60 × 50.</text><animate attributeName="opacity" values="0;1;0;0" keyTimes="0;0.25833;0.55833;1" dur="24s" calcMode="discrete" repeatCount="indefinite"/></g>
<g opacity="0"><text x="40" y="868" class="cap"><tspan class="b">4/5</tspan>  The core is lifted out: nothing holds the florets together any more, they fall apart.</text><animate attributeName="opacity" values="0;1;0;0" keyTimes="0;0.55833;0.68333;1" dur="24s" calcMode="discrete" repeatCount="indefinite"/></g>
<g opacity="0"><text x="40" y="868" class="cap"><tspan class="b">5/5</tspan>  Florets larger than 45 mm are pushed through a coarse wedge grid and split.</text><animate attributeName="opacity" values="0;1;0" keyTimes="0;0.68333;1" dur="24s" calcMode="discrete" repeatCount="indefinite"/></g>
<rect x="40" y="884" width="1520" height="4" fill="#e6e8eb"/><rect x="40" y="884" width="0" height="4" fill="#f28c28"><animate attributeName="width" values="0;1520" keyTimes="0;1" dur="24s" calcMode="linear" repeatCount="indefinite"/></rect>
</svg>