<?xml version="1.0" encoding="UTF-8"?>
<svg xmlns="http://www.w3.org/2000/svg" xmlns:xlink="http://www.w3.org/1999/xlink" viewBox="0 0 1600 900" width="1600" height="900">
<!-- C1-C DRAWER UNITS. Source: design/storage/C1-cold-access.md sections 1.1, 1.3 and 6. Front view with the drawer fronts facing a 470 mm shaft (units turned 90 deg), one shaft with a column of 2 units on each side; overview 0.3 px/mm, zoom 0.42 px/mm. Simplifications: 3 drawers of 250 mm per 820 mm unit; drawer tub 470 deep with 2 M + 1 S in the section; the shaft lift is drawn as one carriage with a hook that runs behind the drawers; timing stretched. -->
<style>text{font-family:system-ui,sans-serif;fill:#2b2f33}.b{font-weight:700}.s{font-size:14px}.m{font-size:16px}.l{font-size:20px}.c{text-anchor:middle}.r{text-anchor:end}.h{stroke:#fff;stroke-width:4;paint-order:stroke}</style>
<defs><marker id="ah" viewBox="0 0 10 10" refX="5" refY="5" markerWidth="5" markerHeight="5" orient="auto-start-reverse"><path d="M0 0 L10 5 L0 10 z" fill="#f28c28"/></marker><marker id="ak" viewBox="0 0 10 10" refX="5" refY="5" markerWidth="5" markerHeight="5" orient="auto-start-reverse"><path d="M0 0 L10 5 L0 10 z" fill="#3a3f45"/></marker><marker id="ab" viewBox="0 0 10 10" refX="5" refY="5" markerWidth="4" markerHeight="4" orient="auto-start-reverse"><path d="M0 0 L10 5 L0 10 z" fill="#2f8fd0"/></marker><marker id="aw" viewBox="0 0 10 10" refX="5" refY="5" markerWidth="4" markerHeight="4" orient="auto-start-reverse"><path d="M0 0 L10 5 L0 10 z" fill="#e8836f"/></marker><pattern id="foam" width="8" height="8" patternUnits="userSpaceOnUse"><rect width="8" height="8" fill="#f4ecc4"/><circle cx="2" cy="2" r="1" fill="#e2d59a"/><circle cx="6" cy="6" r="1" fill="#e2d59a"/></pattern><pattern id="rime" width="10" height="10" patternUnits="userSpaceOnUse"><rect width="10" height="10" fill="#ffffff"/><path d="M2 5 h6 M5 2 v6 M3 3 l4 4 M7 3 l-4 4" stroke="#9cc7e6" stroke-width="0.8"/></pattern></defs>
<rect width="1600" height="900" fill="#ffffff"/>
<text x="24" y="34" class="l b">C1-C  MOTORISED DRAWER UNITS around a shared shaft (rejected)</text>
<text x="24" y="58" class="m">Unmodified drawer fridges and freezers face a shaft; a lift pulls a drawer out and the gallery hoist picks the box from above.</text>
<text x="1576" y="28" class="s r b">no change to the appliances at all</text>
<text x="1576" y="47" class="s r">6 units: about 2,670 mm of wall (B: 1,200)</text>
<text x="1576" y="66" class="s r">drawer open ≈ 9 s, retrieval ≈ 10.5 s</text>
<text x="1576" y="85" class="s r">per pass: fridge 2.7 kJ, freezer 8.8 kJ + 1 g ice</text>
<text x="1576" y="104" class="s r">appliances ≈ €9,000–17,000</text>
<g transform="translate(40 820) scale(0.3)">
<g id="mod">
<rect x="-20" y="-2200" width="1690" height="200" fill="#eef0f2" stroke="#3a3f45" stroke-width="2"/><rect x="-20" y="-2014" width="620" height="14" fill="#c4cad1" stroke="#3a3f45" stroke-width="2"/><rect x="1050" y="-2014" width="620" height="14" fill="#c4cad1" stroke="#3a3f45" stroke-width="2"/>
<rect x="40" y="-120" width="1570" height="120" fill="#d0d4d9" stroke="#3a3f45" stroke-width="3"/>
<rect x="40" y="-940" width="550" height="820" fill="url(#foam)" stroke="#3a3f45" stroke-width="3"/><rect x="85" y="-385" width="475" height="240" fill="#cfe8f8" stroke="#3a3f45" stroke-width="1.5"/><rect x="560" y="-390" width="30" height="250" fill="url(#foam)" stroke="#3a3f45" stroke-width="2"/><rect x="590" y="-290" width="12" height="40" fill="#c4cad1" stroke="#3a3f45" stroke-width="1.5"/><rect x="85" y="-650" width="475" height="240" fill="#cfe8f8" stroke="#3a3f45" stroke-width="1.5"/><rect x="560" y="-655" width="30" height="250" fill="url(#foam)" stroke="#3a3f45" stroke-width="2"/><rect x="590" y="-555" width="12" height="40" fill="#c4cad1" stroke="#3a3f45" stroke-width="1.5"/><rect x="85" y="-915" width="475" height="240" fill="#cfe8f8" stroke="#3a3f45" stroke-width="1.5"/><rect x="560" y="-920" width="30" height="250" fill="url(#foam)" stroke="#3a3f45" stroke-width="2"/><rect x="590" y="-820" width="12" height="40" fill="#c4cad1" stroke="#3a3f45" stroke-width="1.5"/><rect x="40" y="-1760" width="550" height="820" fill="url(#foam)" stroke="#3a3f45" stroke-width="3"/><rect x="85" y="-1205" width="475" height="240" fill="#cfe8f8" stroke="#3a3f45" stroke-width="1.5"/><rect x="560" y="-1210" width="30" height="250" fill="url(#foam)" stroke="#3a3f45" stroke-width="2"/><rect x="590" y="-1110" width="12" height="40" fill="#c4cad1" stroke="#3a3f45" stroke-width="1.5"/><rect x="85" y="-1470" width="475" height="240" fill="#cfe8f8" stroke="#3a3f45" stroke-width="1.5"/><rect x="560" y="-1475" width="30" height="250" fill="url(#foam)" stroke="#3a3f45" stroke-width="2"/><rect x="590" y="-1375" width="12" height="40" fill="#c4cad1" stroke="#3a3f45" stroke-width="1.5"/><rect x="85" y="-1735" width="475" height="240" fill="#cfe8f8" stroke="#3a3f45" stroke-width="1.5"/><rect x="560" y="-1740" width="30" height="250" fill="url(#foam)" stroke="#3a3f45" stroke-width="2"/><rect x="590" y="-1640" width="12" height="40" fill="#c4cad1" stroke="#3a3f45" stroke-width="1.5"/>
<g transform="translate(1650 0) scale(-1 1)"><rect x="40" y="-940" width="550" height="820" fill="url(#foam)" stroke="#3a3f45" stroke-width="3"/><rect x="85" y="-385" width="475" height="240" fill="#cfe8f8" stroke="#3a3f45" stroke-width="1.5"/><rect x="560" y="-390" width="30" height="250" fill="url(#foam)" stroke="#3a3f45" stroke-width="2"/><rect x="590" y="-290" width="12" height="40" fill="#c4cad1" stroke="#3a3f45" stroke-width="1.5"/><rect x="85" y="-650" width="475" height="240" fill="#cfe8f8" stroke="#3a3f45" stroke-width="1.5"/><rect x="560" y="-655" width="30" height="250" fill="url(#foam)" stroke="#3a3f45" stroke-width="2"/><rect x="590" y="-555" width="12" height="40" fill="#c4cad1" stroke="#3a3f45" stroke-width="1.5"/><rect x="85" y="-915" width="475" height="240" fill="#cfe8f8" stroke="#3a3f45" stroke-width="1.5"/><rect x="560" y="-920" width="30" height="250" fill="url(#foam)" stroke="#3a3f45" stroke-width="2"/><rect x="590" y="-820" width="12" height="40" fill="#c4cad1" stroke="#3a3f45" stroke-width="1.5"/><rect x="40" y="-1760" width="550" height="820" fill="url(#foam)" stroke="#3a3f45" stroke-width="3"/><rect x="85" y="-1205" width="475" height="240" fill="#cfe8f8" stroke="#3a3f45" stroke-width="1.5"/><rect x="560" y="-1210" width="30" height="250" fill="url(#foam)" stroke="#3a3f45" stroke-width="2"/><rect x="590" y="-1110" width="12" height="40" fill="#c4cad1" stroke="#3a3f45" stroke-width="1.5"/><rect x="85" y="-1470" width="475" height="240" fill="#cfe8f8" stroke="#3a3f45" stroke-width="1.5"/><rect x="560" y="-1475" width="30" height="250" fill="url(#foam)" stroke="#3a3f45" stroke-width="2"/><rect x="590" y="-1375" width="12" height="40" fill="#c4cad1" stroke="#3a3f45" stroke-width="1.5"/><rect x="85" y="-1735" width="475" height="240" fill="#cfe8f8" stroke="#3a3f45" stroke-width="1.5"/><rect x="560" y="-1740" width="30" height="250" fill="url(#foam)" stroke="#3a3f45" stroke-width="2"/><rect x="590" y="-1640" width="12" height="40" fill="#c4cad1" stroke="#3a3f45" stroke-width="1.5"/></g>
<rect x="85" y="-1465" width="475" height="240" fill="#cfe8f8" stroke="#3a3f45" stroke-width="1.5"/>
<rect x="1090" y="-1465" width="475" height="240" fill="#cfe8f8" stroke="#3a3f45" stroke-width="1.5"/>
<line x1="825" y1="-140" x2="825" y2="-1980" stroke="#9aa1a8" stroke-width="5" stroke-dasharray="16 10"/>
<g transform="translate(825 -600)"><animateTransform attributeName="transform" type="translate" values="825 -600;825 -600;615 -1350;615 -1350;1065 -1350;615 -1350;615 -1350;825 -1350;1035 -1350;585 -1350;1035 -1350;1035 -1350;825 -600;825 -600" keyTimes="0.00000;0.03571;0.08929;0.10714;0.19643;0.41071;0.42857;0.46429;0.48929;0.57143;0.75000;0.76786;0.82143;1.00000" dur="28s" repeatCount="indefinite"/><rect x="-25" y="-40" width="50" height="80" fill="#f28c28" stroke="#3a3f45" stroke-width="2.5"/></g>
<g transform="translate(0 0)"><animateTransform attributeName="transform" type="translate" values="0 0;0 0;450 0;450 0;0 0;0 0" keyTimes="0.00000;0.10714;0.19643;0.32143;0.41071;1.00000" dur="28s" repeatCount="indefinite"/><rect x="90" y="-1430" width="470" height="200" fill="#e9edf1" stroke="#3a3f45" stroke-width="2.5"/><rect x="96" y="-1430" width="458" height="194" fill="#cfe8f8" stroke="none" stroke-width="0"/><rect x="104" y="-1341" width="154" height="105" fill="#f5f0e1" stroke="#3a3f45" stroke-width="2.5"/><rect x="100" y="-1343" width="162" height="5" fill="#f5f0e1" stroke="#3a3f45" stroke-width="1.5"/><rect x="102" y="-1351" width="158" height="8" fill="#b9c7d6" stroke="#3a3f45" stroke-width="1.5"/><rect x="448" y="-1341" width="100" height="105" fill="#f5f0e1" stroke="#3a3f45" stroke-width="2.5"/><rect x="444" y="-1343" width="108" height="5" fill="#f5f0e1" stroke="#3a3f45" stroke-width="1.5"/><rect x="446" y="-1351" width="104" height="8" fill="#b9c7d6" stroke="#3a3f45" stroke-width="1.5"/><rect x="560" y="-1470" width="30" height="250" fill="url(#foam)" stroke="#3a3f45" stroke-width="2.5"/><rect x="556" y="-1450" width="6" height="210" fill="#6b4c8a" stroke="#3a3f45" stroke-width="1.5"/><rect x="590" y="-1370" width="12" height="40" fill="#c4cad1" stroke="#3a3f45" stroke-width="2"/></g>
<g transform="translate(0 0)"><animateTransform attributeName="transform" type="translate" values="0 0;0 0;-450 0;-450 0;0 0;0 0" keyTimes="0.00000;0.50000;0.57143;0.67857;0.75000;1.00000" dur="28s" repeatCount="indefinite"/><g transform="translate(1650 0) scale(-1 1)"><rect x="90" y="-1430" width="470" height="200" fill="#e9edf1" stroke="#3a3f45" stroke-width="2.5"/><rect x="96" y="-1430" width="458" height="194" fill="#cfe8f8" stroke="none" stroke-width="0"/><rect x="104" y="-1341" width="154" height="105" fill="#f5f0e1" stroke="#3a3f45" stroke-width="2.5"/><rect x="100" y="-1343" width="162" height="5" fill="#f5f0e1" stroke="#3a3f45" stroke-width="1.5"/><rect x="102" y="-1351" width="158" height="8" fill="#b9c7d6" stroke="#3a3f45" stroke-width="1.5"/><rect x="448" y="-1341" width="100" height="105" fill="#f5f0e1" stroke="#3a3f45" stroke-width="2.5"/><rect x="444" y="-1343" width="108" height="5" fill="#f5f0e1" stroke="#3a3f45" stroke-width="1.5"/><rect x="446" y="-1351" width="104" height="8" fill="#b9c7d6" stroke="#3a3f45" stroke-width="1.5"/><rect x="560" y="-1470" width="30" height="250" fill="url(#foam)" stroke="#3a3f45" stroke-width="2.5"/><rect x="556" y="-1450" width="6" height="210" fill="#6b4c8a" stroke="#3a3f45" stroke-width="1.5"/><rect x="590" y="-1370" width="12" height="40" fill="#c4cad1" stroke="#3a3f45" stroke-width="2"/><g opacity="0"><animate attributeName="opacity" values="0;0;1;1;0;0" keyTimes="0.00000;0.57143;0.62500;0.89286;0.96429;1.00000" dur="28s" repeatCount="indefinite"/><rect x="100" y="-1360" width="162" height="20" fill="url(#rime)" stroke="#2f8fd0" stroke-width="1.5"/><rect x="444" y="-1360" width="108" height="20" fill="url(#rime)" stroke="#2f8fd0" stroke-width="1.5"/></g></g></g>
<g opacity="1"><animate attributeName="opacity" values="1;1;0;0;1;1" keyTimes="0.00000;0.42857;0.46429;0.93929;0.98571;1.00000" dur="28s" repeatCount="indefinite"/><g transform="translate(353 -1236)"><animateTransform attributeName="transform" type="translate" values="353 -1236;353 -1236;803 -1236;803 -1236;803 -1965;803 -1965;353 -1236;353 -1236" keyTimes="0.00000;0.10714;0.19643;0.26786;0.32143;0.92857;0.93036;1.00000" dur="28s" repeatCount="indefinite"/><rect x="-77" y="-105" width="154" height="105" fill="#7cb342" stroke="#3a3f45" stroke-width="2.5"/><rect x="-81" y="-107" width="162" height="5" fill="#7cb342" stroke="#3a3f45" stroke-width="1.5"/><rect x="-79" y="-115" width="158" height="8" fill="#b9c7d6" stroke="#3a3f45" stroke-width="1.5"/></g></g>
<g opacity="1"><animate attributeName="opacity" values="1;1;0;0;1;1" keyTimes="0.00000;0.75000;0.78571;0.93929;0.98571;1.00000" dur="28s" repeatCount="indefinite"/><g transform="translate(1297 -1236)"><animateTransform attributeName="transform" type="translate" values="1297 -1236;1297 -1236;847 -1236;847 -1236;847 -1965;847 -1965;1297 -1236;1297 -1236" keyTimes="0.00000;0.50000;0.57143;0.62500;0.67857;0.92857;0.93036;1.00000" dur="28s" repeatCount="indefinite"/><rect x="-77" y="-105" width="154" height="105" fill="#9fc4e3" stroke="#3a3f45" stroke-width="2.5"/><rect x="-81" y="-107" width="162" height="5" fill="#9fc4e3" stroke="#3a3f45" stroke-width="1.5"/><rect x="-79" y="-115" width="158" height="8" fill="#b9c7d6" stroke="#3a3f45" stroke-width="1.5"/><g opacity="0"><animate attributeName="opacity" values="0;0;1;1;0;0" keyTimes="0.00000;0.57143;0.62500;0.89286;0.96429;1.00000" dur="28s" repeatCount="indefinite"/><rect x="-81" y="-92" width="162" height="22" fill="url(#rime)" stroke="#2f8fd0" stroke-width="1.5"/></g></g></g>
<g opacity="0"><animate attributeName="opacity" values="0;0;1;1;0;0" keyTimes="0.00000;0.13571;0.15357;0.41071;0.43214;1.00000" dur="28s" repeatCount="indefinite"/><path d="M1010 -1250 C1070 -1160 1050 -700 1040 -200" fill="none" stroke="#cfe8f8" stroke-width="40" stroke-opacity="0.55" stroke-dasharray="60 30"><animate attributeName="stroke-dashoffset" values="0;-900" keyTimes="0.00000;1.00000" dur="28s" repeatCount="indefinite"/></path><path d="M1010 -1250 C1070 -1160 1050 -700 1040 -200" fill="none" stroke="#2f8fd0" stroke-width="8" stroke-opacity="0.9" stroke-dasharray="60 30"><animate attributeName="stroke-dashoffset" values="0;-900" keyTimes="0.00000;1.00000" dur="28s" repeatCount="indefinite"/></path><line x1="900" y1="-1640" x2="860" y2="-1460" stroke="#e8836f" stroke-width="9" marker-end="url(#aw)"/></g>
<g opacity="0"><animate attributeName="opacity" values="0;0;1;1;0;0" keyTimes="0.00000;0.52857;0.54643;0.75000;0.77143;1.00000" dur="28s" repeatCount="indefinite"/><path d="M640 -1250 C580 -1160 600 -700 610 -200" fill="none" stroke="#cfe8f8" stroke-width="40" stroke-opacity="0.55" stroke-dasharray="60 30"><animate attributeName="stroke-dashoffset" values="0;-900" keyTimes="0.00000;1.00000" dur="28s" repeatCount="indefinite"/></path><path d="M640 -1250 C580 -1160 600 -700 610 -200" fill="none" stroke="#2f8fd0" stroke-width="8" stroke-opacity="0.9" stroke-dasharray="60 30"><animate attributeName="stroke-dashoffset" values="0;-900" keyTimes="0.00000;1.00000" dur="28s" repeatCount="indefinite"/></path><line x1="760" y1="-1640" x2="800" y2="-1460" stroke="#e8836f" stroke-width="9" marker-end="url(#aw)"/></g>
<g transform="translate(803 0)"><animateTransform attributeName="transform" type="translate" values="803 0;803 0;847 0;847 0;803 0;803 0" keyTimes="0.00000;0.42857;0.46429;0.82143;0.92857;1.00000" dur="28s" repeatCount="indefinite"/><rect x="-50" y="-2196" width="100" height="18" fill="#f28c28" stroke="#3a3f45" stroke-width="2.5"/><line x1="0" y1="-2190" x2="0" y2="-2190" stroke="#f28c28" stroke-width="4"><animate attributeName="y2" values="-2114;-2114;-1379;-1379;-2114;-2114;-1379;-1379;-2114;-2114" keyTimes="0.00000;0.19643;0.25000;0.26786;0.32143;0.57143;0.60714;0.62500;0.67857;1.00000" dur="28s" repeatCount="indefinite"/></line><g transform="translate(0 -2080)"><animateTransform attributeName="transform" type="translate" values="0 -2080;0 -2080;0 -1345;0 -1345;0 -2080;0 -2080;0 -1345;0 -1345;0 -2080;0 -2080" keyTimes="0.00000;0.19643;0.25000;0.26786;0.32143;0.57143;0.60714;0.62500;0.67857;1.00000" dur="28s" repeatCount="indefinite"/><rect x="-85" y="-34" width="170" height="16" fill="#f28c28" stroke="#3a3f45" stroke-width="2.5"/><rect x="-85" y="-20" width="10" height="20" fill="#f28c28" stroke="#3a3f45" stroke-width="2"/><rect x="75" y="-20" width="10" height="20" fill="#f28c28" stroke="#3a3f45" stroke-width="2"/></g></g>
</g>
</g>
<text x="40" y="148" class="s b">FRONT VIEW, drawer fronts facing the shaft</text>
<text x="134.5" y="807" class="s c h">fridge units</text>
<text x="440.5" y="807" class="s c h">freezer units</text>
<text x="287.5" y="807" class="s c h">shaft</text>
<clipPath id="zc"><rect x="610" y="310" width="441" height="525"/></clipPath><g clip-path="url(#zc)"><use xlink:href="#mod" transform="translate(484 1234) scale(0.42)"/></g><rect x="610" y="310" width="441" height="525" fill="none" stroke="#3a3f45" stroke-width="1.5"/>
<rect x="130" y="160" width="315" height="375" fill="none" stroke="#777" stroke-width="1.2" stroke-dasharray="4 3"/>
<text x="610" y="300" class="s b">ZOOM: the shaft between a fridge and a freezer unit</text>
<text x="643.6" y="562" class="s c h">fridge unit</text>
<text x="1017.4" y="562" class="s c h">freezer unit</text>
<text x="830.5" y="444.4" class="s c h">gallery rope hoist</text>
<text x="830.5" y="809.8" class="s c h">shaft lift (behind)</text>
<text x="643.6" y="788.8" class="s c h">unmodified drawers</text>
<text x="1017.4" y="788.8" class="s c h">pull bars</text>
<text x="1080" y="320" class="s b">WALL NEEDED (plan, to scale)</text>
<rect x="1080" y="340" width="93.5" height="40" fill="#cfe8f8" stroke="#3a3f45" stroke-width="1.5"/>
<rect x="1173.5" y="340" width="79.9" height="40" fill="#fde3c8" stroke="#f28c28" stroke-width="1.5"/>
<rect x="1253.4" y="340" width="93.5" height="40" fill="#cfe8f8" stroke="#3a3f45" stroke-width="1.5"/>
<rect x="1346.9" y="340" width="79.9" height="40" fill="#fde3c8" stroke="#f28c28" stroke-width="1.5"/>
<rect x="1426.8" y="340" width="93.5" height="40" fill="#cfe8f8" stroke="#3a3f45" stroke-width="1.5"/>
<text x="1080" y="400" class="s">C: 3 unit columns + 2 shafts ≈ 2,670 mm</text>
<rect x="1080" y="420" width="102" height="40" fill="#cfe8f8" stroke="#3a3f45" stroke-width="1.5"/>
<rect x="1182" y="420" width="102" height="40" fill="#cfe8f8" stroke="#3a3f45" stroke-width="1.5"/>
<text x="1080" y="480" class="s">B: 2 shells with top exits = 1,200 mm</text>
<text x="1080" y="530" class="s b">WHY IT IS REJECTED</text>
<text x="1080" y="556" class="s">an open drawer spills its cold air: 90–125 L</text>
<text x="1080" y="576" class="s">per pass, about 10× the top hatch</text>
<text x="1080" y="596" class="s">freezer: about 1 g of rime on the boxes per pass</text>
<text x="1080" y="616" class="s">six small appliances use more energy than two</text>
<text x="1080" y="636" class="s">appliances about €9,000–17,000</text>
<text x="1080" y="656" class="s">K9b allots 1,200 mm for cold storage</text>
<text x="1080" y="676" class="s b">Good: zero appliance change, easy for people,</text>
<text x="1080" y="696" class="s b">and a dual-zone unit gives the 10 °C cool zone.</text>
<rect x="30" y="852" width="1540" height="36" rx="6" fill="#f1f3f5" stroke="#c4cad1" stroke-width="1"/>
<g opacity="1"><animate attributeName="opacity" values="1;0" keyTimes="0.00000;0.03571" dur="28s" calcMode="discrete" repeatCount="indefinite"/><text x="44" y="876" class="m"><tspan class="b">1/6</tspan>  Drawer fridges and freezers are used unmodified, turned 90° so that their drawers open into a shaft between them.</text></g>
<g opacity="0"><animate attributeName="opacity" values="0;1;0" keyTimes="0.00000;0.03571;0.19643" dur="28s" calcMode="discrete" repeatCount="indefinite"/><text x="44" y="876" class="m"><tspan class="b">2/6</tspan>  A lift in the shaft hooks the drawer's pull bar and pulls the drawer 450 mm out into the shaft.</text></g>
<g opacity="0"><animate attributeName="opacity" values="0;1;0" keyTimes="0.00000;0.19643;0.32143" dur="28s" calcMode="discrete" repeatCount="indefinite"/><text x="44" y="876" class="m"><tspan class="b">3/6</tspan>  The gallery hoist lowers on a long rope (up to 1.7 m) and picks the box from above: boxes stand in one layer, no digging.</text></g>
<g opacity="0"><animate attributeName="opacity" values="0;1;0" keyTimes="0.00000;0.32143;0.46429" dur="28s" calcMode="discrete" repeatCount="indefinite"/><text x="44" y="876" class="m"><tspan class="b">4/6</tspan>  The drawer goes back in: it was open about 9 s for one box, at the edge of the 10 s limit.</text></g>
<g opacity="0"><animate attributeName="opacity" values="0;1;0" keyTimes="0.00000;0.46429;0.76786" dur="28s" calcMode="discrete" repeatCount="indefinite"/><text x="44" y="876" class="m"><tspan class="b">5/6</tspan>  Freezer drawer: the open drawer spills its cold air (90–125 L per pass), and humid air leaves rime on every box in it.</text></g>
<g opacity="0"><animate attributeName="opacity" values="0;1;0" keyTimes="0.00000;0.76786;1.00000" dur="28s" calcMode="discrete" repeatCount="indefinite"/><text x="44" y="876" class="m"><tspan class="b">6/6</tspan>  No change to the appliances and easy access for people, but six units need about 2.7 m of wall and €9,000–17,000.</text></g>
</svg>